#N canvas 2 102 1436 777 10;
#X obj 110 280 line~;
#X obj 56 89 bng 15 250 50 0 empty empty trigger 17 7 0 10 -262144
-1 -1;
#X floatatom 165 89 5 0 0 0 attack - -;
#X floatatom 248 89 5 0 0 1 decay - -;
#X obj 83 136 pack 1 2500;
#X obj 118 170 bng 15 250 50 0 empty empty empty 17 7 0 10 -262144
-1 -1;
#X obj 179 240 pack 0 6000;
#X obj 147 201 delay 2500;
#X obj 110 297 outlet~;
#X obj 165 72 inlet;
#X obj 248 72 inlet;
#X obj 56 72 inlet;
#X connect 0 0 8 0;
#X connect 1 0 4 0;
#X connect 2 0 4 1;
#X connect 2 0 7 1;
#X connect 3 0 6 1;
#X connect 4 0 0 0;
#X connect 4 0 5 0;
#X connect 5 0 7 0;
#X connect 6 0 0 0;
#X connect 7 0 6 0;
#X connect 9 0 2 0;
#X connect 10 0 3 0;
#X connect 11 0 1 0;
