#N canvas 0 100 1920 980 10;
#X obj 112 349 pack f f f f f;
#X obj 120 139 vsl 20 128 -1 1 0 1 empty empty empty 0 -9 0 10 -262144
-1 -1 500 1;
#X floatatom 120 284 5 0 0 0 - - -;
#X obj 160 139 vsl 20 128 -1 1 0 1 empty empty empty 0 -9 0 10 -262144
-1 -1 1300 1;
#X floatatom 160 284 5 0 0 0 - - -;
#X obj 200 139 vsl 20 128 -1 1 0 1 empty empty empty 0 -9 0 10 -262144
-1 -1 7600 1;
#X floatatom 200 284 5 0 0 0 - - -;
#X obj 240 139 vsl 20 128 -1 1 0 1 empty empty empty 0 -9 0 10 -262144
-1 -1 1400 1;
#X floatatom 240 284 5 0 0 0 - - -;
#X obj 280 139 vsl 20 128 -1 1 0 1 empty empty empty 0 -9 0 10 -262144
-1 -1 1300 1;
#X floatatom 280 284 5 0 0 0 - - -;
#X obj 96 325 bng 15 250 50 0 empty empty empty 17 7 0 10 -262144 -1
-1;
#X text 150 116 parameter for filter;
#X obj -17 383 biquad~;
#X obj -18 427 min~ 1;
#X obj -18 445 max~ -1;
#X obj -18 409 *~ 0.7;
#X obj -16 98 inlet~;
#X obj 5 503 outlet~;
#X connect 0 0 13 0;
#X connect 1 0 2 0;
#X connect 2 0 0 0;
#X connect 3 0 4 0;
#X connect 4 0 0 1;
#X connect 4 0 11 0;
#X connect 5 0 6 0;
#X connect 6 0 0 2;
#X connect 6 0 11 0;
#X connect 7 0 8 0;
#X connect 8 0 0 3;
#X connect 8 0 11 0;
#X connect 9 0 10 0;
#X connect 10 0 0 4;
#X connect 10 0 11 0;
#X connect 11 0 0 0;
#X connect 13 0 16 0;
#X connect 14 0 15 0;
#X connect 15 0 18 0;
#X connect 16 0 14 0;
#X connect 17 0 13 0;
#X coords 0 -1 1 1 220 210 1 100 100;
