#N canvas 2 119 1916 940 10;
#X obj 103 349 pack f f f f f;
#X obj 108 139 vsl 20 128 -1 1 0 1 empty empty empty 0 -9 0 10 -262144
-1 -1 12400 1;
#X floatatom 111 284 5 0 0 0 - - -;
#X obj 148 139 vsl 20 128 -1 1 0 1 empty empty empty 0 -9 0 10 -262144
-1 -1 2200 1;
#X floatatom 151 284 5 0 0 0 - - -;
#X obj 188 139 vsl 20 128 -1 1 0 1 empty empty empty 0 -9 0 10 -262144
-1 -1 9100 1;
#X floatatom 191 284 5 0 0 0 - - -;
#X obj 228 139 vsl 20 128 -1 1 0 1 empty empty empty 0 -9 0 10 -262144
-1 -1 900 1;
#X floatatom 231 284 5 0 0 0 - - -;
#X obj 268 139 vsl 20 128 -1 1 0 1 empty empty empty 0 -9 0 10 -262144
-1 -1 6100 1;
#X floatatom 271 284 5 0 0 0 - - -;
#X obj 87 325 bng 15 250 50 0 empty empty empty 17 7 0 10 -262144 -1
-1;
#X text 138 116 parameter for filter;
#X obj -17 383 biquad~;
#X obj -18 427 min~ 1;
#X obj -18 445 max~ -1;
#X obj -18 409 *~ 0.7;
#X obj -16 98 inlet~;
#X obj 5 503 outlet~;
#X connect 0 0 13 0;
#X connect 1 0 2 0;
#X connect 2 0 0 0;
#X connect 3 0 4 0;
#X connect 4 0 0 1;
#X connect 4 0 11 0;
#X connect 5 0 6 0;
#X connect 6 0 0 2;
#X connect 6 0 11 0;
#X connect 7 0 8 0;
#X connect 8 0 0 3;
#X connect 8 0 11 0;
#X connect 9 0 10 0;
#X connect 10 0 0 4;
#X connect 10 0 11 0;
#X connect 11 0 0 0;
#X connect 13 0 16 0;
#X connect 14 0 15 0;
#X connect 15 0 18 0;
#X connect 16 0 14 0;
#X connect 17 0 13 0;
#X coords 0 -1 1 1 210 210 1 100 100;
