#N canvas 2 102 1436 777 10;
#X obj 138 71 mod 8;
#X obj 477 76 tgl 15 0 empty empty on/off 17 7 0 10 -262144 -1 -1 1
1;
#X obj 138 54 f;
#X obj 520 111 metro 500;
#X obj 160 54 + 1;
#X floatatom 172 71 5 0 0 0 - - -;
#X floatatom 516 22 5 100 1000 0 tempo_click_here - tempo;
#X obj 138 88 hradio 15 1 0 8 empty empty empty 0 -8 0 8 -262144 -1
-1 7;
#X obj 150 162 select 0 1 2 3 4 5 6 7;
#X text 420 203 midi 60 = c;
#X floatatom 41 222 5 60 83 0 - - -;
#X obj 41 236 mtof;
#X obj 26 253 f;
#X floatatom 229 222 5 60 83 0 - - -;
#X obj 229 236 mtof;
#X obj 214 253 f;
#X floatatom 276 222 5 60 83 0 - - -;
#X obj 276 236 mtof;
#X obj 261 253 f;
#X floatatom 182 222 5 60 83 0 - - -;
#X obj 182 236 mtof;
#X obj 167 253 f;
#X floatatom 135 222 5 60 83 0 - - -;
#X obj 135 236 mtof;
#X obj 120 253 f;
#X floatatom 88 222 5 60 83 0 - - -;
#X obj 88 236 mtof;
#X obj 73 253 f;
#X floatatom 323 222 5 60 83 0 - - -;
#X obj 323 236 mtof;
#X obj 308 253 f;
#X floatatom 370 222 5 60 83 0 - - -;
#X obj 370 236 mtof;
#X obj 355 253 f;
#X floatatom 417 222 5 60 83 0 - - -;
#X obj 417 236 mtof;
#X obj 402 253 f;
#X obj 246 717 dac~;
#X floatatom 200 112 5 0 0 0 - - -;
#X floatatom 216 323 5 0 0 0 - - -;
#X floatatom 235 496 5 0 0 0 - - -;
#X obj 368 432 vradio 15 1 0 2 empty empty empty 0 -8 0 10 -262144
-1 -1 0;
#X obj 289 496 *~;
#X obj 213 496 *~;
#X floatatom 311 496 5 0 0 0 - - -;
#X obj 304 479 == 1;
#X obj 228 479 == 0;
#X text 251 323 frequency;
#X obj 290 452 square;
#X obj 214 452 saw;
#X obj 731 231 hsl 128 15 0 1 0 0 empty empty attack/release -2 -8
0 10 -262144 -1 -1 1100 1;
#X obj 253 555 *~;
#X floatatom 879 299 5 100 1000 1 tempo tempo -;
#X floatatom 766 308 5 0 0 1 decay - -;
#X floatatom 724 308 5 0 0 0 attack - -;
#X obj 766 274 * -1;
#X obj 766 291 + 1;
#X floatatom 608 73 5 100 1000 0 tempo tempo -;
#X obj 724 344 *;
#X obj 766 344 *;
#X floatatom 724 361 5 0 0 0 - - -;
#X floatatom 766 361 5 0 0 0 - - -;
#X obj 701 403 ar-envelope;
#X obj 520 128 send pulse;
#X obj 138 37 receive pulse;
#X obj 628 379 receive pulse;
#X msg 879 313 bang;
#X obj 825 409 hsl 128 15 0 1 0 0 empty empty intensity -2 -8 0 10
-262144 -1 -1 12000 1;
#X obj 764 463 * -1;
#X obj 764 480 + 1;
#X obj 742 463 *~;
#X obj 748 497 +~;
#X obj 251 649 hip~ 5;
#X obj 251 666 hip~ 5;
#X obj 251 683 hip~ 5;
#X obj 251 632 hip~ 5;
#X obj 186 337 send frequency;
#X obj 214 427 receive frequency;
#X obj 252 605 lop~ 440;
#X obj 252 588 lop~ 440;
#X obj 328 565 receive frequency;
#X obj 328 582 * 4;
#X connect 0 0 7 0;
#X connect 0 0 38 0;
#X connect 1 0 3 0;
#X connect 2 0 0 0;
#X connect 2 0 4 0;
#X connect 2 0 5 0;
#X connect 3 0 63 0;
#X connect 4 0 2 1;
#X connect 7 0 8 0;
#X connect 8 0 12 0;
#X connect 8 1 27 0;
#X connect 8 2 24 0;
#X connect 8 3 21 0;
#X connect 8 4 15 0;
#X connect 8 5 18 0;
#X connect 8 6 30 0;
#X connect 8 7 33 0;
#X connect 8 8 36 0;
#X connect 10 0 11 0;
#X connect 11 0 12 1;
#X connect 12 0 39 0;
#X connect 13 0 14 0;
#X connect 14 0 15 1;
#X connect 15 0 39 0;
#X connect 16 0 17 0;
#X connect 17 0 18 1;
#X connect 18 0 39 0;
#X connect 19 0 20 0;
#X connect 20 0 21 1;
#X connect 21 0 39 0;
#X connect 22 0 23 0;
#X connect 23 0 24 1;
#X connect 24 0 39 0;
#X connect 25 0 26 0;
#X connect 26 0 27 1;
#X connect 27 0 39 0;
#X connect 28 0 29 0;
#X connect 29 0 30 1;
#X connect 30 0 39 0;
#X connect 31 0 32 0;
#X connect 32 0 33 1;
#X connect 33 0 39 0;
#X connect 34 0 35 0;
#X connect 35 0 36 1;
#X connect 36 0 39 0;
#X connect 39 0 76 0;
#X connect 41 0 45 0;
#X connect 41 0 46 0;
#X connect 42 0 51 0;
#X connect 43 0 51 0;
#X connect 45 0 44 0;
#X connect 45 0 42 1;
#X connect 46 0 40 0;
#X connect 46 0 43 1;
#X connect 48 0 42 0;
#X connect 49 0 43 0;
#X connect 50 0 54 0;
#X connect 50 0 55 0;
#X connect 51 0 79 0;
#X connect 52 0 59 1;
#X connect 52 0 66 0;
#X connect 52 0 58 1;
#X connect 53 0 59 0;
#X connect 54 0 58 0;
#X connect 55 0 56 0;
#X connect 56 0 53 0;
#X connect 57 0 3 1;
#X connect 58 0 60 0;
#X connect 59 0 61 0;
#X connect 60 0 62 1;
#X connect 61 0 62 2;
#X connect 62 0 70 0;
#X connect 64 0 2 0;
#X connect 65 0 62 0;
#X connect 66 0 59 0;
#X connect 66 0 58 0;
#X connect 67 0 68 0;
#X connect 67 0 70 1;
#X connect 68 0 69 0;
#X connect 69 0 71 1;
#X connect 70 0 71 0;
#X connect 71 0 51 1;
#X connect 72 0 73 0;
#X connect 73 0 74 0;
#X connect 74 0 37 0;
#X connect 74 0 37 1;
#X connect 75 0 72 0;
#X connect 77 0 49 0;
#X connect 77 0 48 0;
#X connect 78 0 75 0;
#X connect 79 0 78 0;
#X connect 80 0 81 0;
#X connect 81 0 78 1;
#X connect 81 0 79 1;
