#N canvas 2 120 1436 759 10;
#X text 420 203 midi 60 = c;
#X obj 247 837 dac~;
#X floatatom 235 426 5 0 0 0 - - -;
#X obj 368 363 vradio 30 1 1 2 empty empty empty 0 -8 0 10 -191407
-1 -1 1;
#X obj 289 426 *~;
#X obj 213 426 *~;
#X floatatom 311 426 5 0 0 0 - - -;
#X obj 304 409 == 1;
#X obj 228 409 == 0;
#X obj 290 382 square;
#X obj 214 382 saw;
#X obj 516 189 hsl 180 30 0 1 0 1 empty empty attack/release -2 -8
0 10 -257985 -1 -1 8400 1;
#X obj 253 485 *~;
#X floatatom 516 241 5 100 1000 1 tempo tempo -;
#X floatatom 601 266 5 0 0 1 decay - -;
#X floatatom 459 266 5 0 0 0 attack - -;
#X obj 601 232 * -1;
#X obj 601 249 + 1;
#X obj 509 302 *;
#X obj 551 302 *;
#X floatatom 509 319 5 0 0 0 - - -;
#X floatatom 551 319 5 0 0 0 - - -;
#X obj 486 361 ar-envelope;
#X obj 413 337 receive pulse;
#X obj 610 367 hsl 180 30 0 1 0 1 empty empty intensity -2 -8 0 10
-257985 -1 -1 17900 1;
#X obj 549 421 * -1;
#X obj 549 438 + 1;
#X obj 527 421 *~;
#X obj 533 455 +~;
#X obj 252 769 hip~ 5;
#X obj 252 786 hip~ 5;
#X obj 252 803 hip~ 5;
#X obj 252 752 hip~ 5;
#X obj 214 357 receive frequency;
#X obj 252 535 lop~ 440;
#X obj 252 518 lop~ 440;
#X obj 328 495 receive frequency;
#X obj 328 512 * 4;
#X obj 990 31 loadbang;
#X obj 990 58 send lb;
#X obj 516 257 t b f;
#N canvas 2 156 1436 723 seqcontrol 0;
#X obj 363 147 bng 15 250 50 0 empty tone1+ +1 17 7 0 10 -262144 -1
-1;
#X obj 391 147 bng 15 250 50 0 empty tone1- -1 17 7 0 10 -262144 -1
-1;
#N canvas 1268 408 609 396 counter 0;
#X floatatom 110 209 5 0 0 0 - - -;
#X obj 128 109 f;
#X obj 86 109 + 1;
#X obj 150 109 - 1;
#X obj 64 109 f;
#X obj 110 183 +;
#X obj 128 146 t b f;
#X obj 64 62 inlet;
#X obj 128 62 inlet;
#X obj 110 245 outlet;
#X text 207 138 two bangs come in \, a number comes out. the left bang
subtracts 1 the right bang adds 1;
#X text 212 197 the rightmost message is for setting the initial counter
NOTE: THIS IS NOT FOR RESETTING!!;
#X obj 192 62 inlet;
#X connect 0 0 9 0;
#X connect 1 0 3 0;
#X connect 1 0 6 0;
#X connect 2 0 4 1;
#X connect 3 0 1 1;
#X connect 4 0 2 0;
#X connect 4 0 5 0;
#X connect 5 0 0 0;
#X connect 6 0 5 0;
#X connect 6 1 5 1;
#X connect 7 0 4 0;
#X connect 8 0 1 0;
#X connect 12 0 1 0;
#X restore 363 163 pd counter;
#X obj 363 196 s tone1;
#X floatatom 363 180 5 0 0 0 - - -;
#X msg 420 145 60;
#X obj 463 147 bng 15 250 50 0 empty tone2+ +1 17 7 0 10 -262144 -1
-1;
#X obj 491 147 bng 15 250 50 0 empty tone2- -1 17 7 0 10 -262144 -1
-1;
#N canvas 603 501 609 396 counter 0;
#X floatatom 110 209 5 0 0 0 - - -;
#X obj 128 109 f;
#X obj 86 109 + 1;
#X obj 150 109 - 1;
#X obj 64 109 f;
#X obj 110 183 +;
#X obj 128 146 t b f;
#X obj 64 62 inlet;
#X obj 128 62 inlet;
#X obj 110 245 outlet;
#X text 207 138 two bangs come in \, a number comes out. the left bang
subtracts 1 the right bang adds 1;
#X text 212 197 the rightmost message is for setting the initial counter
NOTE: THIS IS NOT FOR RESETTING!!;
#X obj 192 62 inlet;
#X connect 0 0 9 0;
#X connect 1 0 3 0;
#X connect 1 0 6 0;
#X connect 2 0 4 1;
#X connect 3 0 1 1;
#X connect 4 0 2 0;
#X connect 4 0 5 0;
#X connect 5 0 0 0;
#X connect 6 0 5 0;
#X connect 6 1 5 1;
#X connect 7 0 4 0;
#X connect 8 0 1 0;
#X connect 12 0 1 0;
#X restore 463 163 pd counter;
#X floatatom 463 180 5 0 0 0 - - -;
#X msg 520 145 60;
#X obj 563 147 bng 15 250 50 0 empty tone3+ +1 17 7 0 10 -262144 -1
-1;
#X obj 591 147 bng 15 250 50 0 empty tone3- -1 17 7 0 10 -262144 -1
-1;
#N canvas 601 527 609 396 counter 0;
#X floatatom 110 209 5 0 0 0 - - -;
#X obj 128 109 f;
#X obj 86 109 + 1;
#X obj 150 109 - 1;
#X obj 64 109 f;
#X obj 110 183 +;
#X obj 128 146 t b f;
#X obj 64 62 inlet;
#X obj 128 62 inlet;
#X obj 110 245 outlet;
#X text 207 138 two bangs come in \, a number comes out. the left bang
subtracts 1 the right bang adds 1;
#X text 212 197 the rightmost message is for setting the initial counter
NOTE: THIS IS NOT FOR RESETTING!!;
#X obj 192 62 inlet;
#X connect 0 0 9 0;
#X connect 1 0 3 0;
#X connect 1 0 6 0;
#X connect 2 0 4 1;
#X connect 3 0 1 1;
#X connect 4 0 2 0;
#X connect 4 0 5 0;
#X connect 5 0 0 0;
#X connect 6 0 5 0;
#X connect 6 1 5 1;
#X connect 7 0 4 0;
#X connect 8 0 1 0;
#X connect 12 0 1 0;
#X restore 563 163 pd counter;
#X floatatom 563 180 5 0 0 0 - - -;
#X msg 620 145 60;
#X obj 663 147 bng 15 250 50 0 empty tone4+ +1 17 7 0 10 -262144 -1
-1;
#X obj 691 147 bng 15 250 50 0 empty tone4- -1 17 7 0 10 -262144 -1
-1;
#N canvas 603 501 609 396 counter 0;
#X floatatom 110 209 5 0 0 0 - - -;
#X obj 128 109 f;
#X obj 86 109 + 1;
#X obj 150 109 - 1;
#X obj 64 109 f;
#X obj 110 183 +;
#X obj 128 146 t b f;
#X obj 64 62 inlet;
#X obj 128 62 inlet;
#X obj 110 245 outlet;
#X text 207 138 two bangs come in \, a number comes out. the left bang
subtracts 1 the right bang adds 1;
#X text 212 197 the rightmost message is for setting the initial counter
NOTE: THIS IS NOT FOR RESETTING!!;
#X obj 192 62 inlet;
#X connect 0 0 9 0;
#X connect 1 0 3 0;
#X connect 1 0 6 0;
#X connect 2 0 4 1;
#X connect 3 0 1 1;
#X connect 4 0 2 0;
#X connect 4 0 5 0;
#X connect 5 0 0 0;
#X connect 6 0 5 0;
#X connect 6 1 5 1;
#X connect 7 0 4 0;
#X connect 8 0 1 0;
#X connect 12 0 1 0;
#X restore 663 163 pd counter;
#X floatatom 663 180 5 0 0 0 - - -;
#X msg 720 145 60;
#X obj 363 277 bng 15 250 50 0 empty tone5+ +1 17 7 0 10 -262144 -1
-1;
#X obj 391 277 bng 15 250 50 0 empty tone5- -1 17 7 0 10 -262144 -1
-1;
#N canvas 603 501 609 396 counter 0;
#X floatatom 110 209 5 0 0 0 - - -;
#X obj 128 109 f;
#X obj 86 109 + 1;
#X obj 150 109 - 1;
#X obj 64 109 f;
#X obj 110 183 +;
#X obj 128 146 t b f;
#X obj 64 62 inlet;
#X obj 128 62 inlet;
#X obj 110 245 outlet;
#X text 207 138 two bangs come in \, a number comes out. the left bang
subtracts 1 the right bang adds 1;
#X text 212 197 the rightmost message is for setting the initial counter
NOTE: THIS IS NOT FOR RESETTING!!;
#X obj 192 62 inlet;
#X connect 0 0 9 0;
#X connect 1 0 3 0;
#X connect 1 0 6 0;
#X connect 2 0 4 1;
#X connect 3 0 1 1;
#X connect 4 0 2 0;
#X connect 4 0 5 0;
#X connect 5 0 0 0;
#X connect 6 0 5 0;
#X connect 6 1 5 1;
#X connect 7 0 4 0;
#X connect 8 0 1 0;
#X connect 12 0 1 0;
#X restore 363 293 pd counter;
#X floatatom 363 310 5 0 0 0 - - -;
#X msg 420 275 60;
#X obj 463 277 bng 15 250 50 0 empty tone6+ +1 17 7 0 10 -262144 -1
-1;
#X obj 491 277 bng 15 250 50 0 empty tone6- -1 17 7 0 10 -262144 -1
-1;
#N canvas 603 501 609 396 counter 0;
#X floatatom 110 209 5 0 0 0 - - -;
#X obj 128 109 f;
#X obj 86 109 + 1;
#X obj 150 109 - 1;
#X obj 64 109 f;
#X obj 110 183 +;
#X obj 128 146 t b f;
#X obj 64 62 inlet;
#X obj 128 62 inlet;
#X obj 110 245 outlet;
#X text 207 138 two bangs come in \, a number comes out. the left bang
subtracts 1 the right bang adds 1;
#X text 212 197 the rightmost message is for setting the initial counter
NOTE: THIS IS NOT FOR RESETTING!!;
#X obj 192 62 inlet;
#X connect 0 0 9 0;
#X connect 1 0 3 0;
#X connect 1 0 6 0;
#X connect 2 0 4 1;
#X connect 3 0 1 1;
#X connect 4 0 2 0;
#X connect 4 0 5 0;
#X connect 5 0 0 0;
#X connect 6 0 5 0;
#X connect 6 1 5 1;
#X connect 7 0 4 0;
#X connect 8 0 1 0;
#X connect 12 0 1 0;
#X restore 463 293 pd counter;
#X floatatom 463 310 5 0 0 0 - - -;
#X msg 520 275 60;
#X obj 563 277 bng 15 250 50 0 empty tone7+ +1 17 7 0 10 -262144 -1
-1;
#X obj 591 277 bng 15 250 50 0 empty tone7- -1 17 7 0 10 -262144 -1
-1;
#N canvas 603 501 609 396 counter 0;
#X floatatom 110 209 5 0 0 0 - - -;
#X obj 128 109 f;
#X obj 86 109 + 1;
#X obj 150 109 - 1;
#X obj 64 109 f;
#X obj 110 183 +;
#X obj 128 146 t b f;
#X obj 64 62 inlet;
#X obj 128 62 inlet;
#X obj 110 245 outlet;
#X text 207 138 two bangs come in \, a number comes out. the left bang
subtracts 1 the right bang adds 1;
#X text 212 197 the rightmost message is for setting the initial counter
NOTE: THIS IS NOT FOR RESETTING!!;
#X obj 192 62 inlet;
#X connect 0 0 9 0;
#X connect 1 0 3 0;
#X connect 1 0 6 0;
#X connect 2 0 4 1;
#X connect 3 0 1 1;
#X connect 4 0 2 0;
#X connect 4 0 5 0;
#X connect 5 0 0 0;
#X connect 6 0 5 0;
#X connect 6 1 5 1;
#X connect 7 0 4 0;
#X connect 8 0 1 0;
#X connect 12 0 1 0;
#X restore 563 293 pd counter;
#X floatatom 563 310 5 0 0 0 - - -;
#X msg 620 275 60;
#X obj 663 277 bng 15 250 50 0 empty tone8+ +1 17 7 0 10 -262144 -1
-1;
#X obj 691 277 bng 15 250 50 0 empty tone8- -1 17 7 0 10 -262144 -1
-1;
#N canvas 603 501 609 396 counter 0;
#X floatatom 110 209 5 0 0 0 - - -;
#X obj 128 109 f;
#X obj 86 109 + 1;
#X obj 150 109 - 1;
#X obj 64 109 f;
#X obj 110 183 +;
#X obj 128 146 t b f;
#X obj 64 62 inlet;
#X obj 128 62 inlet;
#X obj 110 245 outlet;
#X text 207 138 two bangs come in \, a number comes out. the left bang
subtracts 1 the right bang adds 1;
#X text 212 197 the rightmost message is for setting the initial counter
NOTE: THIS IS NOT FOR RESETTING!!;
#X obj 192 62 inlet;
#X connect 0 0 9 0;
#X connect 1 0 3 0;
#X connect 1 0 6 0;
#X connect 2 0 4 1;
#X connect 3 0 1 1;
#X connect 4 0 2 0;
#X connect 4 0 5 0;
#X connect 5 0 0 0;
#X connect 6 0 5 0;
#X connect 6 1 5 1;
#X connect 7 0 4 0;
#X connect 8 0 1 0;
#X connect 12 0 1 0;
#X restore 663 293 pd counter;
#X floatatom 663 310 5 0 0 0 - - -;
#X msg 720 275 60;
#X obj 463 196 s tone2;
#X obj 563 196 s tone3;
#X obj 663 196 s tone4;
#X obj 363 326 s tone5;
#X obj 463 326 s tone6;
#X obj 563 326 s tone7;
#X obj 663 326 s tone8;
#X obj 720 128 r lb;
#X obj 620 128 r lb;
#X obj 520 128 r lb;
#X obj 420 128 r lb;
#X obj 420 258 r lb;
#X obj 520 258 r lb;
#X obj 620 258 r lb;
#X obj 720 258 r lb;
#X obj 111 111 bng 30 250 50 1 empty empty empty 17 7 0 15 -260097
-1 -1;
#X obj 210 124 send tone1+;
#X obj 111 398 bng 30 250 50 1 empty empty empty 17 7 0 20 -260097
-1 -1;
#X obj 152 398 bng 30 250 50 1 empty empty empty 17 7 0 20 -260097
-1 -1;
#X obj 111 357 bng 30 250 50 1 empty empty empty 17 7 0 20 -260097
-1 -1;
#X obj 152 152 bng 30 250 50 1 empty empty empty 17 7 0 20 -260097
-1 -1;
#X obj 111 316 bng 30 250 50 1 empty empty empty 17 7 0 20 -260097
-1 -1;
#X obj 152 357 bng 30 250 50 1 empty empty empty 17 7 0 20 -260097
-1 -1;
#X obj 152 316 bng 30 250 50 1 empty empty empty 17 7 0 20 -260097
-1 -1;
#X obj 111 275 bng 30 250 50 1 empty empty empty 17 7 0 20 -260097
-1 -1;
#X obj 152 275 bng 30 250 50 1 empty empty empty 17 7 0 20 -260097
-1 -1;
#X obj 152 193 bng 30 250 50 1 empty empty empty 17 7 0 20 -260097
-1 -1;
#X obj 152 234 bng 30 250 50 1 empty empty empty 17 7 0 20 -260097
-1 -1;
#X obj 111 234 bng 30 250 50 1 empty empty empty 17 7 0 20 -260097
-1 -1;
#X obj 111 193 bng 30 250 50 1 empty empty empty 17 7 0 20 -260097
-1 -1;
#X obj 111 152 bng 30 250 50 1 empty empty empty 17 7 0 20 -260097
-1 -1;
#X obj 153 111 bng 30 250 50 1 empty empty empty 17 7 0 20 -260097
-1 -1;
#X text 223 497 left side increments tone right side derements tone
;
#X obj 14 124 send tone1-;
#X obj 13 165 send tone2-;
#X obj 13 206 send tone3-;
#X obj 13 247 send tone4-;
#X obj 13 288 send tone5-;
#X obj 13 329 send tone6-;
#X obj 13 370 send tone7-;
#X obj 13 411 send tone8-;
#X obj 210 165 send tone2+;
#X obj 210 206 send tone3+;
#X obj 210 247 send tone4+;
#X obj 210 288 send tone5+;
#X obj 210 329 send tone6+;
#X obj 210 370 send tone7+;
#X obj 210 411 send tone8+;
#X connect 0 0 2 0;
#X connect 1 0 2 1;
#X connect 2 0 4 0;
#X connect 4 0 3 0;
#X connect 5 0 2 2;
#X connect 6 0 8 0;
#X connect 7 0 8 1;
#X connect 8 0 9 0;
#X connect 9 0 41 0;
#X connect 10 0 8 2;
#X connect 11 0 13 0;
#X connect 12 0 13 1;
#X connect 13 0 14 0;
#X connect 14 0 42 0;
#X connect 15 0 13 2;
#X connect 16 0 18 0;
#X connect 17 0 18 1;
#X connect 18 0 19 0;
#X connect 19 0 43 0;
#X connect 20 0 18 2;
#X connect 21 0 23 0;
#X connect 22 0 23 1;
#X connect 23 0 24 0;
#X connect 24 0 44 0;
#X connect 25 0 23 2;
#X connect 26 0 28 0;
#X connect 27 0 28 1;
#X connect 28 0 29 0;
#X connect 29 0 45 0;
#X connect 30 0 28 2;
#X connect 31 0 33 0;
#X connect 32 0 33 1;
#X connect 33 0 34 0;
#X connect 34 0 46 0;
#X connect 35 0 33 2;
#X connect 36 0 38 0;
#X connect 37 0 38 1;
#X connect 38 0 39 0;
#X connect 39 0 47 0;
#X connect 40 0 38 2;
#X connect 48 0 20 0;
#X connect 49 0 15 0;
#X connect 50 0 10 0;
#X connect 51 0 5 0;
#X connect 52 0 25 0;
#X connect 53 0 30 0;
#X connect 54 0 35 0;
#X connect 55 0 40 0;
#X connect 56 0 74 0;
#X connect 58 0 81 0;
#X connect 59 0 88 0;
#X connect 60 0 80 0;
#X connect 61 0 82 0;
#X connect 62 0 79 0;
#X connect 63 0 87 0;
#X connect 64 0 86 0;
#X connect 65 0 78 0;
#X connect 66 0 85 0;
#X connect 67 0 83 0;
#X connect 68 0 84 0;
#X connect 69 0 77 0;
#X connect 70 0 76 0;
#X connect 71 0 75 0;
#X connect 72 0 57 0;
#X coords 0 -1 1 1 95 340 1 100 100;
#X restore 82 189 pd seqcontrol;
#N canvas 2 120 1436 759 sequencer 1;
#X obj 170 36 f;
#X obj 212 46 + 1;
#X floatatom 234 73 5 0 0 0 - - -;
#X obj 170 140 hradio 32 1 0 16 empty empty empty 0 -8 0 8 -204800
-1 -1 7;
#X obj 113 678 mtof;
#X obj 98 695 f;
#X obj 301 678 mtof;
#X obj 286 695 f;
#X obj 348 678 mtof;
#X obj 333 695 f;
#X obj 254 678 mtof;
#X obj 239 695 f;
#X obj 207 678 mtof;
#X obj 192 695 f;
#X obj 160 678 mtof;
#X obj 145 695 f;
#X obj 395 678 mtof;
#X obj 380 695 f;
#X obj 442 678 mtof;
#X obj 427 695 f;
#X floatatom 192 114 5 0 0 0 - - -;
#X floatatom 288 765 5 0 0 0 - - -;
#X text 323 765 frequency;
#X obj 170 19 receive pulse;
#X obj 258 779 send frequency;
#X floatatom 880 75 5 30 90 0 - tone1 -;
#X floatatom 1008 75 5 30 90 0 - tone5 -;
#X floatatom 1040 75 5 30 90 0 - tone6 -;
#X floatatom 976 75 5 30 90 0 - tone4 -;
#X floatatom 944 75 5 30 90 0 - tone3 -;
#X floatatom 912 75 5 30 90 0 - tone2 -;
#X floatatom 1072 75 5 30 90 0 - tone7 -;
#X floatatom 1104 75 5 30 90 0 - tone8 -;
#X obj 372 604 select 0 1 2 3 4 5 6 7 8 9 10 11 12 13 14 15;
#X obj 170 228 vsl 32 180 30 60 0 1 empty empty empty 0 -9 0 10 -261234
-1 -1 3200 1;
#X floatatom 171 542 5 0 0 0 - - -;
#X obj 161 490 i;
#X obj 170 183 tgl 32 1 empty empty empty 17 7 0 10 -261682 -1 -1 1
1;
#X obj 171 516 *;
#X obj 169 454 t b f;
#X obj 260 115 nbx 5 14 1 16 0 1 empty empty length 0 -8 0 10 -262144
-1 -1 16 256;
#X obj 190 73 mod;
#X obj 492 678 mtof;
#X obj 477 695 f;
#X obj 542 678 mtof;
#X obj 527 695 f;
#X obj 592 678 mtof;
#X obj 577 695 f;
#X obj 642 678 mtof;
#X obj 627 695 f;
#X obj 692 678 mtof;
#X obj 677 695 f;
#X obj 742 678 mtof;
#X obj 727 695 f;
#X obj 792 678 mtof;
#X obj 777 695 f;
#X obj 842 678 mtof;
#X obj 827 695 f;
#X obj 892 678 mtof;
#X obj 877 695 f;
#X obj 202 228 vsl 32 180 30 60 0 1 empty empty empty 0 -9 0 10 -261234
-1 -1 3200 1;
#X floatatom 203 542 5 0 0 0 - - -;
#X obj 193 490 i;
#X obj 202 183 tgl 32 1 empty empty empty 17 7 0 10 -261682 -1 -1 1
1;
#X obj 203 516 *;
#X obj 201 454 t b f;
#X obj 234 228 vsl 32 180 30 60 0 1 empty empty empty 0 -9 0 10 -261234
-1 -1 3200 1;
#X floatatom 235 542 5 0 0 0 - - -;
#X obj 225 490 i;
#X obj 234 183 tgl 32 1 empty empty empty 17 7 0 10 -261682 -1 -1 1
1;
#X obj 235 516 *;
#X obj 233 454 t b f;
#X obj 266 228 vsl 32 180 30 60 0 1 empty empty empty 0 -9 0 10 -261234
-1 -1 3200 1;
#X floatatom 267 542 5 0 0 0 - - -;
#X obj 257 490 i;
#X obj 266 183 tgl 32 1 empty empty empty 17 7 0 10 -261682 -1 -1 1
1;
#X obj 267 516 *;
#X obj 265 454 t b f;
#X obj 298 228 vsl 32 180 30 60 0 1 empty empty empty 0 -9 0 10 -261234
-1 -1 3200 1;
#X floatatom 299 542 5 0 0 0 - - -;
#X obj 289 490 i;
#X obj 298 183 tgl 32 1 empty empty empty 17 7 0 10 -261682 -1 -1 1
1;
#X obj 299 516 *;
#X obj 297 454 t b f;
#X obj 330 228 vsl 32 180 30 60 0 1 empty empty empty 0 -9 0 10 -261234
-1 -1 3200 1;
#X floatatom 331 542 5 0 0 0 - - -;
#X obj 321 490 i;
#X obj 330 183 tgl 32 1 empty empty empty 17 7 0 10 -261682 -1 -1 1
1;
#X obj 331 516 *;
#X obj 329 454 t b f;
#X obj 362 228 vsl 32 180 30 60 0 1 empty empty empty 0 -9 0 10 -261234
-1 -1 3200 1;
#X floatatom 363 542 5 0 0 0 - - -;
#X obj 353 490 i;
#X obj 362 183 tgl 32 1 empty empty empty 17 7 0 10 -261682 -1 -1 1
1;
#X obj 363 516 *;
#X obj 361 454 t b f;
#X obj 394 228 vsl 32 180 30 60 0 1 empty empty empty 0 -9 0 10 -261234
-1 -1 3200 1;
#X floatatom 395 542 5 0 0 0 - - -;
#X obj 385 490 i;
#X obj 394 183 tgl 32 1 empty empty empty 17 7 0 10 -261682 -1 -1 1
1;
#X obj 395 516 *;
#X obj 393 454 t b f;
#X obj 426 228 vsl 32 180 30 60 0 1 empty empty empty 0 -9 0 10 -261234
-1 -1 3200 1;
#X floatatom 427 542 5 0 0 0 - - -;
#X obj 417 490 i;
#X obj 426 183 tgl 32 1 empty empty empty 17 7 0 10 -261682 -1 -1 1
1;
#X obj 427 516 *;
#X obj 425 454 t b f;
#X obj 458 228 vsl 32 180 30 60 0 1 empty empty empty 0 -9 0 10 -261234
-1 -1 3200 1;
#X floatatom 459 542 5 0 0 0 - - -;
#X obj 449 490 i;
#X obj 458 183 tgl 32 1 empty empty empty 17 7 0 10 -261682 -1 -1 1
1;
#X obj 459 516 *;
#X obj 457 454 t b f;
#X obj 490 228 vsl 32 180 30 60 0 1 empty empty empty 0 -9 0 10 -261234
-1 -1 3200 1;
#X floatatom 491 542 5 0 0 0 - - -;
#X obj 481 490 i;
#X obj 490 183 tgl 32 1 empty empty empty 17 7 0 10 -261682 -1 -1 1
1;
#X obj 491 516 *;
#X obj 489 454 t b f;
#X obj 522 228 vsl 32 180 30 60 0 1 empty empty empty 0 -9 0 10 -261234
-1 -1 3200 1;
#X floatatom 523 542 5 0 0 0 - - -;
#X obj 513 490 i;
#X obj 522 183 tgl 32 1 empty empty empty 17 7 0 10 -261682 -1 -1 1
1;
#X obj 523 516 *;
#X obj 521 454 t b f;
#X obj 554 228 vsl 32 180 30 60 0 1 empty empty empty 0 -9 0 10 -261234
-1 -1 3200 1;
#X floatatom 555 542 5 0 0 0 - - -;
#X obj 545 490 i;
#X obj 554 183 tgl 32 1 empty empty empty 17 7 0 10 -261682 -1 -1 1
1;
#X obj 555 516 *;
#X obj 553 454 t b f;
#X obj 586 228 vsl 32 180 30 60 0 1 empty empty empty 0 -9 0 10 -261234
-1 -1 3200 1;
#X floatatom 587 542 5 0 0 0 - - -;
#X obj 577 490 i;
#X obj 586 183 tgl 32 1 empty empty empty 17 7 0 10 -261682 -1 -1 1
1;
#X obj 587 516 *;
#X obj 585 454 t b f;
#X obj 618 228 vsl 32 180 30 60 0 1 empty empty empty 0 -9 0 10 -261234
-1 -1 3200 1;
#X floatatom 619 542 5 0 0 0 - - -;
#X obj 609 490 i;
#X obj 618 183 tgl 32 1 empty empty empty 17 7 0 10 -261682 -1 -1 1
1;
#X obj 619 516 *;
#X obj 617 454 t b f;
#X obj 650 228 vsl 32 180 30 60 0 1 empty empty empty 0 -9 0 10 -261234
-1 -1 3200 1;
#X floatatom 651 542 5 0 0 0 - - -;
#X obj 641 490 i;
#X obj 650 183 tgl 32 1 empty empty empty 17 7 0 10 -261682 -1 -1 1
1;
#X obj 651 516 *;
#X obj 649 454 t b f;
#X connect 0 0 1 0;
#X connect 0 0 2 0;
#X connect 0 0 41 0;
#X connect 1 0 0 1;
#X connect 3 0 33 0;
#X connect 4 0 5 1;
#X connect 5 0 21 0;
#X connect 6 0 7 1;
#X connect 7 0 21 0;
#X connect 8 0 9 1;
#X connect 9 0 21 0;
#X connect 10 0 11 1;
#X connect 11 0 21 0;
#X connect 12 0 13 1;
#X connect 13 0 21 0;
#X connect 14 0 15 1;
#X connect 15 0 21 0;
#X connect 16 0 17 1;
#X connect 17 0 21 0;
#X connect 18 0 19 1;
#X connect 19 0 21 0;
#X connect 21 0 24 0;
#X connect 23 0 0 0;
#X connect 33 0 5 0;
#X connect 33 1 15 0;
#X connect 33 2 13 0;
#X connect 33 3 11 0;
#X connect 33 4 7 0;
#X connect 33 5 9 0;
#X connect 33 6 17 0;
#X connect 33 7 19 0;
#X connect 33 8 43 0;
#X connect 33 9 45 0;
#X connect 33 10 47 0;
#X connect 33 11 49 0;
#X connect 33 12 51 0;
#X connect 33 13 53 0;
#X connect 33 14 55 0;
#X connect 33 15 57 0;
#X connect 33 16 59 0;
#X connect 34 0 36 0;
#X connect 36 0 38 0;
#X connect 37 0 39 0;
#X connect 38 0 35 0;
#X connect 39 0 36 0;
#X connect 39 1 38 1;
#X connect 40 0 41 1;
#X connect 41 0 3 0;
#X connect 41 0 20 0;
#X connect 42 0 43 1;
#X connect 44 0 45 1;
#X connect 46 0 47 1;
#X connect 48 0 49 1;
#X connect 50 0 51 1;
#X connect 52 0 53 1;
#X connect 54 0 55 1;
#X connect 56 0 57 1;
#X connect 58 0 59 1;
#X connect 60 0 62 0;
#X connect 62 0 64 0;
#X connect 63 0 65 0;
#X connect 64 0 61 0;
#X connect 65 0 62 0;
#X connect 65 1 64 1;
#X connect 66 0 68 0;
#X connect 68 0 70 0;
#X connect 69 0 71 0;
#X connect 70 0 67 0;
#X connect 71 0 68 0;
#X connect 71 1 70 1;
#X connect 72 0 74 0;
#X connect 74 0 76 0;
#X connect 75 0 77 0;
#X connect 76 0 73 0;
#X connect 77 0 74 0;
#X connect 77 1 76 1;
#X connect 78 0 80 0;
#X connect 80 0 82 0;
#X connect 81 0 83 0;
#X connect 82 0 79 0;
#X connect 83 0 80 0;
#X connect 83 1 82 1;
#X connect 84 0 86 0;
#X connect 86 0 88 0;
#X connect 87 0 89 0;
#X connect 88 0 85 0;
#X connect 89 0 86 0;
#X connect 89 1 88 1;
#X connect 90 0 92 0;
#X connect 92 0 94 0;
#X connect 93 0 95 0;
#X connect 94 0 91 0;
#X connect 95 0 92 0;
#X connect 95 1 94 1;
#X connect 96 0 98 0;
#X connect 98 0 100 0;
#X connect 99 0 101 0;
#X connect 100 0 97 0;
#X connect 101 0 98 0;
#X connect 101 1 100 1;
#X connect 102 0 104 0;
#X connect 104 0 106 0;
#X connect 105 0 107 0;
#X connect 106 0 103 0;
#X connect 107 0 104 0;
#X connect 107 1 106 1;
#X connect 108 0 110 0;
#X connect 110 0 112 0;
#X connect 111 0 113 0;
#X connect 112 0 109 0;
#X connect 113 0 110 0;
#X connect 113 1 112 1;
#X connect 114 0 116 0;
#X connect 116 0 118 0;
#X connect 117 0 119 0;
#X connect 118 0 115 0;
#X connect 119 0 116 0;
#X connect 119 1 118 1;
#X connect 120 0 122 0;
#X connect 122 0 124 0;
#X connect 123 0 125 0;
#X connect 124 0 121 0;
#X connect 125 0 122 0;
#X connect 125 1 124 1;
#X connect 126 0 128 0;
#X connect 128 0 130 0;
#X connect 129 0 131 0;
#X connect 130 0 127 0;
#X connect 131 0 128 0;
#X connect 131 1 130 1;
#X connect 132 0 134 0;
#X connect 134 0 136 0;
#X connect 135 0 137 0;
#X connect 136 0 133 0;
#X connect 137 0 134 0;
#X connect 137 1 136 1;
#X connect 138 0 140 0;
#X connect 140 0 142 0;
#X connect 141 0 143 0;
#X connect 142 0 139 0;
#X connect 143 0 140 0;
#X connect 143 1 142 1;
#X connect 144 0 146 0;
#X connect 146 0 148 0;
#X connect 147 0 149 0;
#X connect 148 0 145 0;
#X connect 149 0 146 0;
#X connect 149 1 148 1;
#X coords 0 -1 1 1 580 100 1 150 90;
#X restore 82 89 pd sequencer;
#X obj 301 585 multidelay;
#N canvas 127 377 699 411 control 0;
#X obj 117 114 tgl 30 0 empty empty on/off 17 7 0 10 -258113 -1 -1
0 1;
#X obj 121 311 metro 500;
#X floatatom 166 129 5 50 2000 1 bpm - -;
#X obj 121 328 send pulse;
#X obj 166 42 receive lb;
#X msg 166 68 120;
#X floatatom 188 271 5 0 0 0 - - tempo;
#X obj 172 241 expr 60000 / $f1;
#X connect 0 0 1 0;
#X connect 1 0 3 0;
#X connect 2 0 7 0;
#X connect 4 0 5 0;
#X connect 5 0 2 0;
#X connect 7 0 6 0;
#X connect 7 0 1 1;
#X coords 0 -1 1 1 120 60 1 100 100;
#X restore 409 51 pd control;
#X connect 3 0 7 0;
#X connect 3 0 8 0;
#X connect 4 0 12 0;
#X connect 5 0 12 0;
#X connect 7 0 6 0;
#X connect 7 0 4 1;
#X connect 8 0 2 0;
#X connect 8 0 5 1;
#X connect 9 0 4 0;
#X connect 10 0 5 0;
#X connect 11 0 15 0;
#X connect 11 0 16 0;
#X connect 12 0 35 0;
#X connect 13 0 40 0;
#X connect 14 0 19 0;
#X connect 15 0 18 0;
#X connect 16 0 17 0;
#X connect 17 0 14 0;
#X connect 18 0 20 0;
#X connect 19 0 21 0;
#X connect 20 0 22 1;
#X connect 21 0 22 2;
#X connect 22 0 27 0;
#X connect 23 0 22 0;
#X connect 24 0 25 0;
#X connect 24 0 27 1;
#X connect 25 0 26 0;
#X connect 26 0 28 1;
#X connect 27 0 28 0;
#X connect 28 0 12 1;
#X connect 29 0 30 0;
#X connect 30 0 31 0;
#X connect 31 0 1 0;
#X connect 31 0 1 1;
#X connect 32 0 29 0;
#X connect 33 0 10 0;
#X connect 33 0 9 0;
#X connect 34 0 32 0;
#X connect 35 0 34 0;
#X connect 36 0 37 0;
#X connect 37 0 34 1;
#X connect 37 0 35 1;
#X connect 38 0 39 0;
#X connect 40 0 19 0;
#X connect 40 0 18 0;
#X connect 40 1 19 1;
#X connect 40 1 18 1;
