#N canvas 459 183 1436 795 10;
#X text 710 233 midi 60 = c;
#X obj 881 684 dac~;
#X floatatom 525 456 5 0 0 0 - - -;
#X obj 658 393 vradio 30 1 1 2 empty empty empty 0 -8 0 10 -191407
-1 -1 1;
#X obj 579 456 *~;
#X obj 503 456 *~;
#X floatatom 601 456 5 0 0 0 - - -;
#X obj 594 439 == 1;
#X obj 518 439 == 0;
#X obj 580 412 square;
#X obj 504 412 saw;
#X obj 806 219 hsl 180 30 0 1 0 1 empty empty attack/release -2 -8
0 10 -257985 -1 -1 2500 1;
#X obj 543 515 *~;
#X floatatom 806 271 5 100 1000 1 tempo tempo -;
#X floatatom 891 296 5 0 0 1 decay - -;
#X floatatom 749 296 5 0 0 0 attack - -;
#X obj 891 262 * -1;
#X obj 891 279 + 1;
#X obj 799 332 *;
#X obj 841 332 *;
#X floatatom 799 349 5 0 0 0 - - -;
#X floatatom 841 349 5 0 0 0 - - -;
#X obj 776 391 ar-envelope;
#X obj 703 367 receive pulse;
#X obj 900 397 hsl 180 30 0 1 0 1 empty empty intensity -2 -8 0 10
-257985 -1 -1 13500 1;
#X obj 839 451 * -1;
#X obj 839 468 + 1;
#X obj 817 451 *~;
#X obj 823 485 +~;
#X obj 886 616 hip~ 5;
#X obj 886 633 hip~ 5;
#X obj 886 650 hip~ 5;
#X obj 886 599 hip~ 5;
#X obj 504 387 receive frequency;
#X obj 990 31 loadbang;
#X obj 990 58 send lb;
#X obj 806 287 t b f;
#N canvas 2 102 1436 777 sequencer 0;
#X obj 170 36 f;
#X obj 192 36 + 1;
#X floatatom 212 53 5 0 0 0 - - -;
#X obj 170 140 hradio 32 1 0 16 empty empty empty 0 -8 0 8 -204800
-1 -1 1;
#X obj 113 678 mtof;
#X obj 98 695 f;
#X obj 301 678 mtof;
#X obj 286 695 f;
#X obj 348 678 mtof;
#X obj 333 695 f;
#X obj 254 678 mtof;
#X obj 239 695 f;
#X obj 207 678 mtof;
#X obj 192 695 f;
#X obj 160 678 mtof;
#X obj 145 695 f;
#X obj 395 678 mtof;
#X obj 380 695 f;
#X obj 442 678 mtof;
#X obj 427 695 f;
#X floatatom 182 74 5 0 0 0 - - -;
#X floatatom 498 775 5 0 0 0 - - -;
#X text 533 775 frequency;
#X obj 170 19 receive pulse;
#X obj 468 789 send frequency;
#X obj 372 604 select 0 1 2 3 4 5 6 7 8 9 10 11 12 13 14 15;
#X obj 170 228 vsl 32 180 30 60 0 1 empty empty empty 0 -9 0 10 -261234
-1 -1 13800 1;
#X floatatom 171 542 5 0 0 0 - - -;
#X obj 161 490 i;
#X obj 170 183 tgl 32 1 empty empty empty 17 7 0 10 -261682 -1 -1 1
1;
#X obj 171 516 *;
#X obj 169 454 t b f;
#X obj 260 115 nbx 5 14 1 16 0 1 empty empty length 0 -8 0 10 -262144
-1 -1 16 256;
#X obj 170 53 mod;
#X obj 492 678 mtof;
#X obj 477 695 f;
#X obj 542 678 mtof;
#X obj 527 695 f;
#X obj 592 678 mtof;
#X obj 577 695 f;
#X obj 642 678 mtof;
#X obj 627 695 f;
#X obj 692 678 mtof;
#X obj 677 695 f;
#X obj 742 678 mtof;
#X obj 727 695 f;
#X obj 792 678 mtof;
#X obj 777 695 f;
#X obj 842 678 mtof;
#X obj 827 695 f;
#X obj 202 228 vsl 32 180 30 60 0 1 empty empty empty 0 -9 0 10 -261234
-1 -1 14800 1;
#X floatatom 203 542 5 0 0 0 - - -;
#X obj 193 490 i;
#X obj 202 183 tgl 32 1 empty empty empty 17 7 0 10 -261682 -1 -1 1
1;
#X obj 203 516 *;
#X obj 201 454 t b f;
#X obj 234 228 vsl 32 180 30 60 0 1 empty empty empty 0 -9 0 10 -261234
-1 -1 13300 1;
#X floatatom 235 542 5 0 0 0 - - -;
#X obj 225 490 i;
#X obj 234 183 tgl 32 1 empty empty empty 17 7 0 10 -261682 -1 -1 0
1;
#X obj 235 516 *;
#X obj 233 454 t b f;
#X obj 266 228 vsl 32 180 30 60 0 1 empty empty empty 0 -9 0 10 -261234
-1 -1 9600 1;
#X floatatom 267 542 5 0 0 0 - - -;
#X obj 257 490 i;
#X obj 266 183 tgl 32 1 empty empty empty 17 7 0 10 -261682 -1 -1 1
1;
#X obj 267 516 *;
#X obj 265 454 t b f;
#X obj 298 228 vsl 32 180 30 60 0 1 empty empty empty 0 -9 0 10 -261234
-1 -1 14800 1;
#X floatatom 299 542 5 0 0 0 - - -;
#X obj 289 490 i;
#X obj 298 183 tgl 32 1 empty empty empty 17 7 0 10 -261682 -1 -1 1
1;
#X obj 299 516 *;
#X obj 297 454 t b f;
#X obj 330 228 vsl 32 180 30 60 0 1 empty empty empty 0 -9 0 10 -261234
-1 -1 16600 1;
#X floatatom 331 542 5 0 0 0 - - -;
#X obj 321 490 i;
#X obj 330 183 tgl 32 1 empty empty empty 17 7 0 10 -261682 -1 -1 0
1;
#X obj 331 516 *;
#X obj 329 454 t b f;
#X obj 362 228 vsl 32 180 30 60 0 1 empty empty empty 0 -9 0 10 -261234
-1 -1 15600 1;
#X floatatom 363 542 5 0 0 0 - - -;
#X obj 353 490 i;
#X obj 362 183 tgl 32 1 empty empty empty 17 7 0 10 -261682 -1 -1 0
1;
#X obj 363 516 *;
#X obj 361 454 t b f;
#X obj 394 228 vsl 32 180 30 60 0 1 empty empty empty 0 -9 0 10 -261234
-1 -1 9000 1;
#X floatatom 395 542 5 0 0 0 - - -;
#X obj 385 490 i;
#X obj 394 183 tgl 32 1 empty empty empty 17 7 0 10 -261682 -1 -1 1
1;
#X obj 395 516 *;
#X obj 393 454 t b f;
#X obj 426 228 vsl 32 180 30 60 0 1 empty empty empty 0 -9 0 10 -261234
-1 -1 16700 1;
#X floatatom 427 542 5 0 0 0 - - -;
#X obj 417 490 i;
#X obj 426 183 tgl 32 1 empty empty empty 17 7 0 10 -261682 -1 -1 0
1;
#X obj 427 516 *;
#X obj 425 454 t b f;
#X obj 458 228 vsl 32 180 30 60 0 1 empty empty empty 0 -9 0 10 -261234
-1 -1 7900 1;
#X floatatom 459 542 5 0 0 0 - - -;
#X obj 449 490 i;
#X obj 458 183 tgl 32 1 empty empty empty 17 7 0 10 -261682 -1 -1 1
1;
#X obj 459 516 *;
#X obj 457 454 t b f;
#X obj 490 228 vsl 32 180 30 60 0 1 empty empty empty 0 -9 0 10 -261234
-1 -1 9500 1;
#X floatatom 491 542 5 0 0 0 - - -;
#X obj 481 490 i;
#X obj 490 183 tgl 32 1 empty empty empty 17 7 0 10 -261682 -1 -1 1
1;
#X obj 491 516 *;
#X obj 489 454 t b f;
#X obj 522 228 vsl 32 180 30 60 0 1 empty empty empty 0 -9 0 10 -261234
-1 -1 17400 1;
#X floatatom 523 542 5 0 0 0 - - -;
#X obj 513 490 i;
#X obj 522 183 tgl 32 1 empty empty empty 17 7 0 10 -261682 -1 -1 0
1;
#X obj 523 516 *;
#X obj 521 454 t b f;
#X obj 554 228 vsl 32 180 30 60 0 1 empty empty empty 0 -9 0 10 -261234
-1 -1 15200 1;
#X floatatom 555 542 5 0 0 0 - - -;
#X obj 545 490 i;
#X obj 554 183 tgl 32 1 empty empty empty 17 7 0 10 -261682 -1 -1 0
1;
#X obj 555 516 *;
#X obj 553 454 t b f;
#X obj 586 228 vsl 32 180 30 60 0 1 empty empty empty 0 -9 0 10 -261234
-1 -1 11500 1;
#X floatatom 587 542 5 0 0 0 - - -;
#X obj 577 490 i;
#X obj 586 183 tgl 32 1 empty empty empty 17 7 0 10 -261682 -1 -1 1
1;
#X obj 587 516 *;
#X obj 585 454 t b f;
#X obj 618 228 vsl 32 180 30 60 0 1 empty empty empty 0 -9 0 10 -261234
-1 -1 14500 1;
#X floatatom 619 542 5 0 0 0 - - -;
#X obj 609 490 i;
#X obj 618 183 tgl 32 1 empty empty empty 17 7 0 10 -261682 -1 -1 0
1;
#X obj 619 516 *;
#X obj 617 454 t b f;
#X obj 650 228 vsl 32 180 30 60 0 1 empty empty empty 0 -9 0 10 -261234
-1 -1 6700 1;
#X floatatom 651 542 5 0 0 0 - - -;
#X obj 641 490 i;
#X obj 650 183 tgl 32 1 empty empty empty 17 7 0 10 -261682 -1 -1 1
1;
#X obj 651 516 *;
#X obj 649 454 t b f;
#X msg 255 39 0;
#X connect 0 0 1 0;
#X connect 0 0 2 0;
#X connect 0 0 33 0;
#X connect 1 0 0 1;
#X connect 3 0 25 0;
#X connect 4 0 5 1;
#X connect 5 0 21 0;
#X connect 6 0 7 1;
#X connect 7 0 21 0;
#X connect 8 0 9 1;
#X connect 9 0 21 0;
#X connect 10 0 11 1;
#X connect 11 0 21 0;
#X connect 12 0 13 1;
#X connect 13 0 21 0;
#X connect 14 0 15 1;
#X connect 15 0 21 0;
#X connect 16 0 17 1;
#X connect 17 0 21 0;
#X connect 18 0 19 1;
#X connect 19 0 21 0;
#X connect 21 0 24 0;
#X connect 23 0 0 0;
#X connect 25 0 5 0;
#X connect 25 1 15 0;
#X connect 25 2 13 0;
#X connect 25 3 11 0;
#X connect 25 4 7 0;
#X connect 25 5 9 0;
#X connect 25 6 17 0;
#X connect 25 7 19 0;
#X connect 25 8 35 0;
#X connect 25 9 37 0;
#X connect 25 10 39 0;
#X connect 25 11 41 0;
#X connect 25 12 43 0;
#X connect 25 13 45 0;
#X connect 25 14 47 0;
#X connect 25 15 49 0;
#X connect 26 0 28 0;
#X connect 27 0 4 0;
#X connect 28 0 30 0;
#X connect 29 0 31 0;
#X connect 30 0 27 0;
#X connect 31 0 28 0;
#X connect 31 1 30 1;
#X connect 32 0 33 1;
#X connect 32 0 140 0;
#X connect 33 0 3 0;
#X connect 33 0 20 0;
#X connect 34 0 35 1;
#X connect 35 0 21 0;
#X connect 36 0 37 1;
#X connect 37 0 21 0;
#X connect 38 0 39 1;
#X connect 39 0 21 0;
#X connect 40 0 41 1;
#X connect 41 0 21 0;
#X connect 42 0 43 1;
#X connect 43 0 21 0;
#X connect 44 0 45 1;
#X connect 45 0 21 0;
#X connect 46 0 47 1;
#X connect 47 0 21 0;
#X connect 48 0 49 1;
#X connect 49 0 21 0;
#X connect 50 0 52 0;
#X connect 51 0 14 0;
#X connect 52 0 54 0;
#X connect 53 0 55 0;
#X connect 54 0 51 0;
#X connect 55 0 52 0;
#X connect 55 1 54 1;
#X connect 56 0 58 0;
#X connect 57 0 12 0;
#X connect 58 0 60 0;
#X connect 59 0 61 0;
#X connect 60 0 57 0;
#X connect 61 0 58 0;
#X connect 61 1 60 1;
#X connect 62 0 64 0;
#X connect 63 0 10 0;
#X connect 64 0 66 0;
#X connect 65 0 67 0;
#X connect 66 0 63 0;
#X connect 67 0 64 0;
#X connect 67 1 66 1;
#X connect 68 0 70 0;
#X connect 69 0 6 0;
#X connect 70 0 72 0;
#X connect 71 0 73 0;
#X connect 72 0 69 0;
#X connect 73 0 70 0;
#X connect 73 1 72 1;
#X connect 74 0 76 0;
#X connect 75 0 8 0;
#X connect 76 0 78 0;
#X connect 77 0 79 0;
#X connect 78 0 75 0;
#X connect 79 0 76 0;
#X connect 79 1 78 1;
#X connect 80 0 82 0;
#X connect 81 0 16 0;
#X connect 82 0 84 0;
#X connect 83 0 85 0;
#X connect 84 0 81 0;
#X connect 85 0 82 0;
#X connect 85 1 84 1;
#X connect 86 0 88 0;
#X connect 87 0 18 0;
#X connect 88 0 90 0;
#X connect 89 0 91 0;
#X connect 90 0 87 0;
#X connect 91 0 88 0;
#X connect 91 1 90 1;
#X connect 92 0 94 0;
#X connect 93 0 34 0;
#X connect 94 0 96 0;
#X connect 95 0 97 0;
#X connect 96 0 93 0;
#X connect 97 0 94 0;
#X connect 97 1 96 1;
#X connect 98 0 100 0;
#X connect 99 0 36 0;
#X connect 100 0 102 0;
#X connect 101 0 103 0;
#X connect 102 0 99 0;
#X connect 103 0 100 0;
#X connect 103 1 102 1;
#X connect 104 0 106 0;
#X connect 105 0 38 0;
#X connect 106 0 108 0;
#X connect 107 0 109 0;
#X connect 108 0 105 0;
#X connect 109 0 106 0;
#X connect 109 1 108 1;
#X connect 110 0 112 0;
#X connect 111 0 40 0;
#X connect 112 0 114 0;
#X connect 113 0 115 0;
#X connect 114 0 111 0;
#X connect 115 0 112 0;
#X connect 115 1 114 1;
#X connect 116 0 118 0;
#X connect 117 0 42 0;
#X connect 118 0 120 0;
#X connect 119 0 121 0;
#X connect 120 0 117 0;
#X connect 121 0 118 0;
#X connect 121 1 120 1;
#X connect 122 0 124 0;
#X connect 123 0 44 0;
#X connect 124 0 126 0;
#X connect 125 0 127 0;
#X connect 126 0 123 0;
#X connect 127 0 124 0;
#X connect 127 1 126 1;
#X connect 128 0 130 0;
#X connect 129 0 46 0;
#X connect 130 0 132 0;
#X connect 131 0 133 0;
#X connect 132 0 129 0;
#X connect 133 0 130 0;
#X connect 133 1 132 1;
#X connect 134 0 136 0;
#X connect 135 0 48 0;
#X connect 136 0 138 0;
#X connect 137 0 139 0;
#X connect 138 0 135 0;
#X connect 139 0 136 0;
#X connect 139 1 138 1;
#X connect 140 0 0 1;
#X coords 0 -1 1 1 560 350 1 150 90;
#X restore 73 20 pd sequencer;
#X obj 591 615 multidelay;
#N canvas 127 377 699 411 control 0;
#X obj 117 114 tgl 30 0 empty empty on/off 17 7 0 10 -258113 -1 -1
1 1;
#X obj 121 311 metro 500;
#X floatatom 166 129 5 50 2000 1 bpm - -;
#X obj 121 328 send pulse;
#X obj 166 42 receive lb;
#X msg 166 68 120;
#X floatatom 188 271 5 0 0 0 - - tempo;
#X obj 172 241 expr 60000 / $f1;
#X connect 0 0 1 0;
#X connect 1 0 3 0;
#X connect 2 0 7 0;
#X connect 4 0 5 0;
#X connect 5 0 2 0;
#X connect 7 0 6 0;
#X connect 7 0 1 1;
#X coords 0 -1 1 1 120 60 1 100 100;
#X restore 699 81 pd control;
#X connect 3 0 7 0;
#X connect 3 0 8 0;
#X connect 4 0 12 0;
#X connect 5 0 12 0;
#X connect 7 0 6 0;
#X connect 7 0 4 1;
#X connect 8 0 2 0;
#X connect 8 0 5 1;
#X connect 9 0 4 0;
#X connect 10 0 5 0;
#X connect 11 0 15 0;
#X connect 11 0 16 0;
#X connect 12 0 32 0;
#X connect 13 0 36 0;
#X connect 14 0 19 0;
#X connect 15 0 18 0;
#X connect 16 0 17 0;
#X connect 17 0 14 0;
#X connect 18 0 20 0;
#X connect 19 0 21 0;
#X connect 20 0 22 1;
#X connect 21 0 22 2;
#X connect 22 0 27 0;
#X connect 23 0 22 0;
#X connect 24 0 25 0;
#X connect 24 0 27 1;
#X connect 25 0 26 0;
#X connect 26 0 28 1;
#X connect 27 0 28 0;
#X connect 28 0 12 1;
#X connect 29 0 30 0;
#X connect 30 0 31 0;
#X connect 31 0 1 0;
#X connect 31 0 1 1;
#X connect 32 0 29 0;
#X connect 33 0 10 0;
#X connect 33 0 9 0;
#X connect 34 0 35 0;
#X connect 36 0 19 0;
#X connect 36 0 18 0;
#X connect 36 1 19 1;
#X connect 36 1 18 1;
