#N canvas 298 184 1436 777 10;
#X obj 138 71 mod 8;
#X obj 477 76 tgl 15 0 empty empty on/off 17 7 0 10 -262144 -1 -1 0
1;
#X obj 138 54 f;
#X obj 520 111 metro 500;
#X obj 160 54 + 1;
#X floatatom 172 71 5 0 0 0 - - -;
#X floatatom 516 22 5 100 1000 0 tempo_click_here lbtempo tempo;
#X obj 138 88 hradio 15 1 0 8 empty empty empty 0 -8 0 8 -262144 -1
-1 5;
#X obj 150 162 select 0 1 2 3 4 5 6 7;
#X text 420 203 midi 60 = c;
#X floatatom 41 222 5 30 90 0 - tone1 -;
#X obj 41 236 mtof;
#X obj 26 253 f;
#X floatatom 229 222 5 30 90 0 - tone5 -;
#X obj 229 236 mtof;
#X obj 214 253 f;
#X floatatom 276 222 5 30 90 0 - tone6 -;
#X obj 276 236 mtof;
#X obj 261 253 f;
#X floatatom 182 222 5 30 90 0 - tone4 -;
#X obj 182 236 mtof;
#X obj 167 253 f;
#X floatatom 135 222 5 30 90 0 - tone3 -;
#X obj 135 236 mtof;
#X obj 120 253 f;
#X floatatom 88 222 5 30 90 0 - tone2 -;
#X obj 88 236 mtof;
#X obj 73 253 f;
#X floatatom 323 220 5 30 90 0 - tone7 -;
#X obj 323 236 mtof;
#X obj 308 253 f;
#X floatatom 370 222 5 30 90 0 - tone8 -;
#X obj 370 236 mtof;
#X obj 355 253 f;
#X obj 246 717 dac~;
#X floatatom 200 112 5 0 0 0 - - -;
#X floatatom 216 323 5 0 0 0 - - -;
#X floatatom 235 496 5 0 0 0 - - -;
#X obj 368 432 vradio 15 1 0 2 empty empty empty 0 -8 0 10 -262144
-1 -1 1;
#X obj 289 496 *~;
#X obj 213 496 *~;
#X floatatom 311 496 5 0 0 0 - - -;
#X obj 304 479 == 1;
#X obj 228 479 == 0;
#X text 251 323 frequency;
#X obj 290 452 square;
#X obj 214 452 saw;
#X obj 516 259 hsl 128 15 0 1 0 0 empty empty attack/release -2 -8
0 10 -262144 -1 -1 4500 1;
#X obj 253 555 *~;
#X floatatom 664 327 5 100 1000 1 tempo tempo -;
#X floatatom 551 336 5 0 0 1 decay - -;
#X floatatom 509 336 5 0 0 0 attack - -;
#X obj 551 302 * -1;
#X obj 551 319 + 1;
#X floatatom 608 73 5 100 1000 0 tempo tempo -;
#X obj 509 372 *;
#X obj 551 372 *;
#X floatatom 509 389 5 0 0 0 - - -;
#X floatatom 551 389 5 0 0 0 - - -;
#X obj 486 431 ar-envelope;
#X obj 520 128 send pulse;
#X obj 138 37 receive pulse;
#X obj 413 407 receive pulse;
#X msg 664 343 bang;
#X obj 610 437 hsl 128 15 0 1 0 0 empty empty intensity -2 -8 0 10
-262144 -1 -1 12700 1;
#X obj 549 491 * -1;
#X obj 549 508 + 1;
#X obj 527 491 *~;
#X obj 533 525 +~;
#X obj 251 649 hip~ 5;
#X obj 251 666 hip~ 5;
#X obj 251 683 hip~ 5;
#X obj 251 632 hip~ 5;
#X obj 186 337 send frequency;
#X obj 214 427 receive frequency;
#X obj 252 605 lop~ 440;
#X obj 252 588 lop~ 440;
#X obj 328 565 receive frequency;
#X obj 328 582 * 4;
#X obj 990 31 loadbang;
#X msg 1141 99 500;
#X obj 1141 116 send lbtempo;
#X obj 836 360 bng 15 250 50 0 empty empty +1 17 7 0 10 -262144 -1
-1;
#X obj 864 360 bng 15 250 50 0 empty empty -1 17 7 0 10 -262144 -1
-1;
#N canvas 603 501 609 396 counter 0;
#X floatatom 110 209 5 0 0 0 - - -;
#X obj 128 109 f;
#X obj 86 109 + 1;
#X obj 150 109 - 1;
#X obj 64 109 f;
#X obj 110 183 +;
#X obj 128 146 t b f;
#X obj 64 62 inlet;
#X obj 128 62 inlet;
#X obj 110 245 outlet;
#X text 207 138 two bangs come in \, a number comes out. the left bang
subtracts 1 the right bang adds 1;
#X text 212 197 the rightmost message is for setting the initial counter
NOTE: THIS IS NOT FOR RESETTING!!;
#X obj 192 62 inlet;
#X connect 0 0 9 0;
#X connect 1 0 3 0;
#X connect 1 0 6 0;
#X connect 2 0 4 1;
#X connect 3 0 1 1;
#X connect 4 0 2 0;
#X connect 4 0 5 0;
#X connect 5 0 0 0;
#X connect 6 0 5 0;
#X connect 6 1 5 1;
#X connect 7 0 4 0;
#X connect 8 0 1 0;
#X connect 12 0 1 0;
#X restore 836 376 pd counter;
#X obj 836 409 s tone1;
#X floatatom 836 393 5 0 0 0 - - -;
#X msg 893 358 60;
#X obj 936 360 bng 15 250 50 0 empty empty +1 17 7 0 10 -262144 -1
-1;
#X obj 964 360 bng 15 250 50 0 empty empty -1 17 7 0 10 -262144 -1
-1;
#N canvas 603 501 609 396 counter 0;
#X floatatom 110 209 5 0 0 0 - - -;
#X obj 128 109 f;
#X obj 86 109 + 1;
#X obj 150 109 - 1;
#X obj 64 109 f;
#X obj 110 183 +;
#X obj 128 146 t b f;
#X obj 64 62 inlet;
#X obj 128 62 inlet;
#X obj 110 245 outlet;
#X text 207 138 two bangs come in \, a number comes out. the left bang
subtracts 1 the right bang adds 1;
#X text 212 197 the rightmost message is for setting the initial counter
NOTE: THIS IS NOT FOR RESETTING!!;
#X obj 192 62 inlet;
#X connect 0 0 9 0;
#X connect 1 0 3 0;
#X connect 1 0 6 0;
#X connect 2 0 4 1;
#X connect 3 0 1 1;
#X connect 4 0 2 0;
#X connect 4 0 5 0;
#X connect 5 0 0 0;
#X connect 6 0 5 0;
#X connect 6 1 5 1;
#X connect 7 0 4 0;
#X connect 8 0 1 0;
#X connect 12 0 1 0;
#X restore 936 376 pd counter;
#X floatatom 936 393 5 0 0 0 - - -;
#X msg 993 358 60;
#X obj 1036 360 bng 15 250 50 0 empty empty +1 17 7 0 10 -262144 -1
-1;
#X obj 1064 360 bng 15 250 50 0 empty empty -1 17 7 0 10 -262144 -1
-1;
#N canvas 603 501 609 396 counter 0;
#X floatatom 110 209 5 0 0 0 - - -;
#X obj 128 109 f;
#X obj 86 109 + 1;
#X obj 150 109 - 1;
#X obj 64 109 f;
#X obj 110 183 +;
#X obj 128 146 t b f;
#X obj 64 62 inlet;
#X obj 128 62 inlet;
#X obj 110 245 outlet;
#X text 207 138 two bangs come in \, a number comes out. the left bang
subtracts 1 the right bang adds 1;
#X text 212 197 the rightmost message is for setting the initial counter
NOTE: THIS IS NOT FOR RESETTING!!;
#X obj 192 62 inlet;
#X connect 0 0 9 0;
#X connect 1 0 3 0;
#X connect 1 0 6 0;
#X connect 2 0 4 1;
#X connect 3 0 1 1;
#X connect 4 0 2 0;
#X connect 4 0 5 0;
#X connect 5 0 0 0;
#X connect 6 0 5 0;
#X connect 6 1 5 1;
#X connect 7 0 4 0;
#X connect 8 0 1 0;
#X connect 12 0 1 0;
#X restore 1036 376 pd counter;
#X floatatom 1036 393 5 0 0 0 - - -;
#X msg 1093 358 60;
#X obj 1136 360 bng 15 250 50 0 empty empty +1 17 7 0 10 -262144 -1
-1;
#X obj 1164 360 bng 15 250 50 0 empty empty -1 17 7 0 10 -262144 -1
-1;
#N canvas 603 501 609 396 counter 0;
#X floatatom 110 209 5 0 0 0 - - -;
#X obj 128 109 f;
#X obj 86 109 + 1;
#X obj 150 109 - 1;
#X obj 64 109 f;
#X obj 110 183 +;
#X obj 128 146 t b f;
#X obj 64 62 inlet;
#X obj 128 62 inlet;
#X obj 110 245 outlet;
#X text 207 138 two bangs come in \, a number comes out. the left bang
subtracts 1 the right bang adds 1;
#X text 212 197 the rightmost message is for setting the initial counter
NOTE: THIS IS NOT FOR RESETTING!!;
#X obj 192 62 inlet;
#X connect 0 0 9 0;
#X connect 1 0 3 0;
#X connect 1 0 6 0;
#X connect 2 0 4 1;
#X connect 3 0 1 1;
#X connect 4 0 2 0;
#X connect 4 0 5 0;
#X connect 5 0 0 0;
#X connect 6 0 5 0;
#X connect 6 1 5 1;
#X connect 7 0 4 0;
#X connect 8 0 1 0;
#X connect 12 0 1 0;
#X restore 1136 376 pd counter;
#X floatatom 1136 393 5 0 0 0 - - -;
#X msg 1193 358 60;
#X obj 836 450 bng 15 250 50 0 empty empty +1 17 7 0 10 -262144 -1
-1;
#X obj 864 450 bng 15 250 50 0 empty empty -1 17 7 0 10 -262144 -1
-1;
#N canvas 603 501 609 396 counter 0;
#X floatatom 110 209 5 0 0 0 - - -;
#X obj 128 109 f;
#X obj 86 109 + 1;
#X obj 150 109 - 1;
#X obj 64 109 f;
#X obj 110 183 +;
#X obj 128 146 t b f;
#X obj 64 62 inlet;
#X obj 128 62 inlet;
#X obj 110 245 outlet;
#X text 207 138 two bangs come in \, a number comes out. the left bang
subtracts 1 the right bang adds 1;
#X text 212 197 the rightmost message is for setting the initial counter
NOTE: THIS IS NOT FOR RESETTING!!;
#X obj 192 62 inlet;
#X connect 0 0 9 0;
#X connect 1 0 3 0;
#X connect 1 0 6 0;
#X connect 2 0 4 1;
#X connect 3 0 1 1;
#X connect 4 0 2 0;
#X connect 4 0 5 0;
#X connect 5 0 0 0;
#X connect 6 0 5 0;
#X connect 6 1 5 1;
#X connect 7 0 4 0;
#X connect 8 0 1 0;
#X connect 12 0 1 0;
#X restore 836 466 pd counter;
#X floatatom 836 483 5 0 0 0 - - -;
#X msg 893 448 60;
#X obj 936 450 bng 15 250 50 0 empty empty +1 17 7 0 10 -262144 -1
-1;
#X obj 964 450 bng 15 250 50 0 empty empty -1 17 7 0 10 -262144 -1
-1;
#N canvas 603 501 609 396 counter 0;
#X floatatom 110 209 5 0 0 0 - - -;
#X obj 128 109 f;
#X obj 86 109 + 1;
#X obj 150 109 - 1;
#X obj 64 109 f;
#X obj 110 183 +;
#X obj 128 146 t b f;
#X obj 64 62 inlet;
#X obj 128 62 inlet;
#X obj 110 245 outlet;
#X text 207 138 two bangs come in \, a number comes out. the left bang
subtracts 1 the right bang adds 1;
#X text 212 197 the rightmost message is for setting the initial counter
NOTE: THIS IS NOT FOR RESETTING!!;
#X obj 192 62 inlet;
#X connect 0 0 9 0;
#X connect 1 0 3 0;
#X connect 1 0 6 0;
#X connect 2 0 4 1;
#X connect 3 0 1 1;
#X connect 4 0 2 0;
#X connect 4 0 5 0;
#X connect 5 0 0 0;
#X connect 6 0 5 0;
#X connect 6 1 5 1;
#X connect 7 0 4 0;
#X connect 8 0 1 0;
#X connect 12 0 1 0;
#X restore 936 466 pd counter;
#X floatatom 936 483 5 0 0 0 - - -;
#X msg 993 448 60;
#X obj 1036 450 bng 15 250 50 0 empty empty +1 17 7 0 10 -262144 -1
-1;
#X obj 1064 450 bng 15 250 50 0 empty empty -1 17 7 0 10 -262144 -1
-1;
#N canvas 603 501 609 396 counter 0;
#X floatatom 110 209 5 0 0 0 - - -;
#X obj 128 109 f;
#X obj 86 109 + 1;
#X obj 150 109 - 1;
#X obj 64 109 f;
#X obj 110 183 +;
#X obj 128 146 t b f;
#X obj 64 62 inlet;
#X obj 128 62 inlet;
#X obj 110 245 outlet;
#X text 207 138 two bangs come in \, a number comes out. the left bang
subtracts 1 the right bang adds 1;
#X text 212 197 the rightmost message is for setting the initial counter
NOTE: THIS IS NOT FOR RESETTING!!;
#X obj 192 62 inlet;
#X connect 0 0 9 0;
#X connect 1 0 3 0;
#X connect 1 0 6 0;
#X connect 2 0 4 1;
#X connect 3 0 1 1;
#X connect 4 0 2 0;
#X connect 4 0 5 0;
#X connect 5 0 0 0;
#X connect 6 0 5 0;
#X connect 6 1 5 1;
#X connect 7 0 4 0;
#X connect 8 0 1 0;
#X connect 12 0 1 0;
#X restore 1036 466 pd counter;
#X floatatom 1036 483 5 0 0 0 - - -;
#X msg 1093 448 60;
#X obj 1136 450 bng 15 250 50 0 empty empty +1 17 7 0 10 -262144 -1
-1;
#X obj 1164 450 bng 15 250 50 0 empty empty -1 17 7 0 10 -262144 -1
-1;
#N canvas 603 501 609 396 counter 0;
#X floatatom 110 209 5 0 0 0 - - -;
#X obj 128 109 f;
#X obj 86 109 + 1;
#X obj 150 109 - 1;
#X obj 64 109 f;
#X obj 110 183 +;
#X obj 128 146 t b f;
#X obj 64 62 inlet;
#X obj 128 62 inlet;
#X obj 110 245 outlet;
#X text 207 138 two bangs come in \, a number comes out. the left bang
subtracts 1 the right bang adds 1;
#X text 212 197 the rightmost message is for setting the initial counter
NOTE: THIS IS NOT FOR RESETTING!!;
#X obj 192 62 inlet;
#X connect 0 0 9 0;
#X connect 1 0 3 0;
#X connect 1 0 6 0;
#X connect 2 0 4 1;
#X connect 3 0 1 1;
#X connect 4 0 2 0;
#X connect 4 0 5 0;
#X connect 5 0 0 0;
#X connect 6 0 5 0;
#X connect 6 1 5 1;
#X connect 7 0 4 0;
#X connect 8 0 1 0;
#X connect 12 0 1 0;
#X restore 1136 466 pd counter;
#X floatatom 1136 483 5 0 0 0 - - -;
#X msg 1193 448 60;
#X obj 936 409 s tone2;
#X obj 1036 409 s tone3;
#X obj 1136 409 s tone4;
#X obj 836 499 s tone5;
#X obj 936 499 s tone6;
#X obj 1036 499 s tone7;
#X obj 1136 499 s tone8;
#X msg 990 67 send lb;
#X msg 1141 82 r lb;
#X msg 893 340 r lb;
#X msg 993 341 r lb;
#X msg 1093 341 r lb;
#X msg 1193 341 r lb;
#X msg 893 431 r lb;
#X msg 993 431 r lb;
#X msg 1093 430 r lb;
#X msg 1193 431 r lb;
#X connect 0 0 7 0;
#X connect 0 0 35 0;
#X connect 1 0 3 0;
#X connect 2 0 0 0;
#X connect 2 0 4 0;
#X connect 2 0 5 0;
#X connect 3 0 60 0;
#X connect 4 0 2 1;
#X connect 7 0 8 0;
#X connect 8 0 12 0;
#X connect 8 1 27 0;
#X connect 8 2 24 0;
#X connect 8 3 21 0;
#X connect 8 4 15 0;
#X connect 8 5 18 0;
#X connect 8 6 30 0;
#X connect 8 7 33 0;
#X connect 10 0 11 0;
#X connect 11 0 12 1;
#X connect 12 0 36 0;
#X connect 13 0 14 0;
#X connect 14 0 15 1;
#X connect 15 0 36 0;
#X connect 16 0 17 0;
#X connect 17 0 18 1;
#X connect 18 0 36 0;
#X connect 19 0 20 0;
#X connect 20 0 21 1;
#X connect 21 0 36 0;
#X connect 22 0 23 0;
#X connect 23 0 24 1;
#X connect 24 0 36 0;
#X connect 25 0 26 0;
#X connect 26 0 27 1;
#X connect 27 0 36 0;
#X connect 28 0 29 0;
#X connect 29 0 30 1;
#X connect 30 0 36 0;
#X connect 31 0 32 0;
#X connect 32 0 33 1;
#X connect 33 0 36 0;
#X connect 36 0 73 0;
#X connect 38 0 42 0;
#X connect 38 0 43 0;
#X connect 39 0 48 0;
#X connect 40 0 48 0;
#X connect 42 0 41 0;
#X connect 42 0 39 1;
#X connect 43 0 37 0;
#X connect 43 0 40 1;
#X connect 45 0 39 0;
#X connect 46 0 40 0;
#X connect 47 0 51 0;
#X connect 47 0 52 0;
#X connect 48 0 76 0;
#X connect 49 0 56 1;
#X connect 49 0 63 0;
#X connect 49 0 55 1;
#X connect 50 0 56 0;
#X connect 51 0 55 0;
#X connect 52 0 53 0;
#X connect 53 0 50 0;
#X connect 54 0 3 1;
#X connect 55 0 57 0;
#X connect 56 0 58 0;
#X connect 57 0 59 1;
#X connect 58 0 59 2;
#X connect 59 0 67 0;
#X connect 61 0 2 0;
#X connect 62 0 59 0;
#X connect 63 0 56 0;
#X connect 63 0 55 0;
#X connect 64 0 65 0;
#X connect 64 0 67 1;
#X connect 65 0 66 0;
#X connect 66 0 68 1;
#X connect 67 0 68 0;
#X connect 68 0 48 1;
#X connect 69 0 70 0;
#X connect 70 0 71 0;
#X connect 71 0 34 0;
#X connect 71 0 34 1;
#X connect 72 0 69 0;
#X connect 74 0 46 0;
#X connect 74 0 45 0;
#X connect 75 0 72 0;
#X connect 76 0 75 0;
#X connect 77 0 78 0;
#X connect 78 0 75 1;
#X connect 78 0 76 1;
#X connect 79 0 130 0;
#X connect 80 0 81 0;
#X connect 82 0 84 0;
#X connect 83 0 84 1;
#X connect 84 0 86 0;
#X connect 86 0 85 0;
#X connect 87 0 84 2;
#X connect 88 0 90 0;
#X connect 89 0 90 1;
#X connect 90 0 91 0;
#X connect 91 0 123 0;
#X connect 92 0 90 2;
#X connect 93 0 95 0;
#X connect 94 0 95 1;
#X connect 95 0 96 0;
#X connect 96 0 124 0;
#X connect 97 0 95 2;
#X connect 98 0 100 0;
#X connect 99 0 100 1;
#X connect 100 0 101 0;
#X connect 101 0 125 0;
#X connect 102 0 100 2;
#X connect 103 0 105 0;
#X connect 104 0 105 1;
#X connect 105 0 106 0;
#X connect 106 0 126 0;
#X connect 107 0 105 2;
#X connect 108 0 110 0;
#X connect 109 0 110 1;
#X connect 110 0 111 0;
#X connect 111 0 127 0;
#X connect 112 0 110 2;
#X connect 113 0 115 0;
#X connect 114 0 115 1;
#X connect 115 0 116 0;
#X connect 116 0 128 0;
#X connect 117 0 115 2;
#X connect 118 0 120 0;
#X connect 119 0 120 1;
#X connect 120 0 121 0;
#X connect 121 0 129 0;
#X connect 122 0 120 2;
#X connect 132 0 87 0;
#X connect 133 0 92 0;
#X connect 134 0 97 0;
#X connect 135 0 102 0;
#X connect 136 0 107 0;
#X connect 137 0 112 0;
#X connect 138 0 117 0;
#X connect 139 0 122 0;
