#N canvas 2 102 1436 777 10;
#X obj 230 270 mod 8;
#X obj 154 161 tgl 15 0 empty empty on/off 17 7 0 10 -262144 -1 -1
0 1;
#X obj 230 253 f;
#X obj 197 196 metro 500;
#X obj 252 253 + 1;
#X floatatom 264 270 5 0 0 0 - - -;
#X floatatom 285 158 5 100 1000 0 tempo - -;
#X msg 309 88 loadbang;
#X obj 230 287 hradio 15 1 0 8 empty empty empty 0 -8 0 8 -262144 -1
-1 3;
#X obj 230 373 select 0 1 2 3 4 5 6 7;
#X connect 0 0 8 0;
#X connect 1 0 3 0;
#X connect 2 0 0 0;
#X connect 2 0 4 0;
#X connect 2 0 5 0;
#X connect 3 0 2 0;
#X connect 4 0 2 1;
#X connect 6 0 3 1;
#X connect 7 0 6 0;
#X connect 8 0 2 0;
#X connect 8 0 9 0;
