#N canvas 2 101 1916 958 10;
#X obj 1091 684 dac~;
#X floatatom 725 356 5 0 0 0 - - -;
#X obj 858 293 vradio 30 1 1 2 empty empty empty 0 -8 0 10 -191407
-1 -1 0;
#X obj 779 356 *~;
#X obj 703 356 *~;
#X floatatom 801 356 5 0 0 0 - - -;
#X obj 794 339 == 1;
#X obj 718 339 == 0;
#X obj 780 312 square;
#X obj 704 312 saw;
#X obj 1094 569 *~;
#X obj 1096 616 hip~ 5;
#X obj 1096 633 hip~ 5;
#X obj 1096 650 hip~ 5;
#X obj 1096 599 hip~ 5;
#X obj 704 287 receive frequency;
#X obj 990 31 loadbang;
#X obj 990 58 send lb;
#X obj 801 615 multidelay;
#N canvas 2 119 1916 940 control 0;
#X obj 117 114 tgl 30 0 empty empty on/off 17 7 0 10 -258113 -1 -1
1 1;
#X obj 121 311 metro 500;
#X floatatom 166 129 5 50 2000 1 bpm - -;
#X obj 121 328 send pulse;
#X obj 166 42 receive lb;
#X msg 166 68 120;
#X floatatom 188 271 5 0 0 0 - - tempo;
#X obj 172 241 expr 60000 / $f1;
#X connect 0 0 1 0;
#X connect 1 0 3 0;
#X connect 2 0 7 0;
#X connect 4 0 5 0;
#X connect 5 0 2 0;
#X connect 7 0 6 0;
#X connect 7 0 1 1;
#X coords 0 -1 1 1 120 60 1 100 100;
#X restore 699 81 pd control;
#X obj 1105 466 pack f f f f f;
#X obj 1110 256 vsl 20 128 -1 1 0 1 empty empty empty 0 -9 0 10 -262144
-1 -1 12400 1;
#X floatatom 1113 401 5 0 0 0 - - -;
#X obj 1150 256 vsl 20 128 -1 1 0 1 empty empty empty 0 -9 0 10 -262144
-1 -1 2200 1;
#X floatatom 1153 401 5 0 0 0 - - -;
#X obj 1190 256 vsl 20 128 -1 1 0 1 empty empty empty 0 -9 0 10 -262144
-1 -1 9100 1;
#X floatatom 1193 401 5 0 0 0 - - -;
#X obj 1230 256 vsl 20 128 -1 1 0 1 empty empty empty 0 -9 0 10 -262144
-1 -1 900 1;
#X floatatom 1233 401 5 0 0 0 - - -;
#X obj 1270 256 vsl 20 128 -1 1 0 1 empty empty empty 0 -9 0 10 -262144
-1 -1 6100 1;
#X floatatom 1273 401 5 0 0 0 - - -;
#X obj 1089 442 bng 15 250 50 0 empty empty empty 17 7 0 10 -262144
-1 -1;
#X text 1140 233 parameter for filter;
#X obj 985 500 biquad~;
#X obj 984 544 min~ 1;
#X obj 984 562 max~ -1;
#X obj 984 526 *~ 0.7;
#N canvas 2 119 1916 940 freq 0;
#X obj 116 506 mtof;
#X obj 101 523 f;
#X obj 304 506 mtof;
#X obj 289 523 f;
#X obj 351 506 mtof;
#X obj 336 523 f;
#X obj 257 506 mtof;
#X obj 242 523 f;
#X obj 210 506 mtof;
#X obj 195 523 f;
#X obj 163 506 mtof;
#X obj 148 523 f;
#X obj 398 506 mtof;
#X obj 383 523 f;
#X obj 445 506 mtof;
#X obj 430 523 f;
#X floatatom 501 603 5 0 0 0 - - -;
#X text 536 603 frequency;
#X obj 471 619 send frequency;
#X obj 375 432 select 0 1 2 3 4 5 6 7 8 9 10 11 12 13 14 15;
#X obj 173 126 vsl 32 180 30 60 0 1 empty empty empty 0 -9 0 10 -261234
-1 -1 8400 1;
#X floatatom 173 370 5 0 0 0 - - -;
#X obj 495 506 mtof;
#X obj 480 523 f;
#X obj 545 506 mtof;
#X obj 530 523 f;
#X obj 595 506 mtof;
#X obj 580 523 f;
#X obj 645 506 mtof;
#X obj 630 523 f;
#X obj 695 506 mtof;
#X obj 680 523 f;
#X obj 745 506 mtof;
#X obj 730 523 f;
#X obj 795 506 mtof;
#X obj 780 523 f;
#X obj 845 506 mtof;
#X obj 830 523 f;
#X obj 205 126 vsl 32 180 30 60 0 1 empty empty empty 0 -9 0 10 -261234
-1 -1 7900 1;
#X floatatom 205 370 5 0 0 0 - - -;
#X obj 237 126 vsl 32 180 30 60 0 1 empty empty empty 0 -9 0 10 -261234
-1 -1 10000 1;
#X floatatom 237 370 5 0 0 0 - - -;
#X obj 269 126 vsl 32 180 30 60 0 1 empty empty empty 0 -9 0 10 -261234
-1 -1 8000 1;
#X floatatom 269 370 5 0 0 0 - - -;
#X obj 301 126 vsl 32 180 30 60 0 1 empty empty empty 0 -9 0 10 -261234
-1 -1 12400 1;
#X floatatom 301 370 5 0 0 0 - - -;
#X obj 333 126 vsl 32 180 30 60 0 1 empty empty empty 0 -9 0 10 -261234
-1 -1 7500 1;
#X floatatom 333 370 5 0 0 0 - - -;
#X obj 365 126 vsl 32 180 30 60 0 1 empty empty empty 0 -9 0 10 -261234
-1 -1 10200 1;
#X floatatom 365 370 5 0 0 0 - - -;
#X obj 397 126 vsl 32 180 30 60 0 1 empty empty empty 0 -9 0 10 -261234
-1 -1 9700 1;
#X floatatom 397 370 5 0 0 0 - - -;
#X obj 429 126 vsl 32 180 30 60 0 1 empty empty empty 0 -9 0 10 -261234
-1 -1 17900 1;
#X floatatom 429 370 5 0 0 0 - - -;
#X obj 461 126 vsl 32 180 30 60 0 1 empty empty empty 0 -9 0 10 -261234
-1 -1 7500 1;
#X floatatom 461 370 5 0 0 0 - - -;
#X obj 493 126 vsl 32 180 30 60 0 1 empty empty empty 0 -9 0 10 -261234
-1 -1 7900 1;
#X floatatom 493 370 5 0 0 0 - - -;
#X obj 525 126 vsl 32 180 30 60 0 1 empty empty empty 0 -9 0 10 -261234
-1 -1 14100 1;
#X floatatom 525 370 5 0 0 0 - - -;
#X obj 557 126 vsl 32 180 30 60 0 1 empty empty empty 0 -9 0 10 -261234
-1 -1 12400 1;
#X floatatom 557 370 5 0 0 0 - - -;
#X obj 589 126 vsl 32 180 30 60 0 1 empty empty empty 0 -9 0 10 -261234
-1 -1 6800 1;
#X floatatom 589 370 5 0 0 0 - - -;
#X obj 621 126 vsl 32 180 30 60 0 1 empty empty empty 0 -9 0 10 -261234
-1 -1 11200 1;
#X floatatom 621 370 5 0 0 0 - - -;
#X obj 653 126 vsl 32 180 30 60 0 1 empty empty empty 0 -9 0 10 -261234
-1 -1 8800 1;
#X floatatom 653 370 5 0 0 0 - - -;
#X obj 382 407 receive counter;
#X connect 0 0 1 1;
#X connect 1 0 16 0;
#X connect 2 0 3 1;
#X connect 3 0 16 0;
#X connect 4 0 5 1;
#X connect 5 0 16 0;
#X connect 6 0 7 1;
#X connect 7 0 16 0;
#X connect 8 0 9 1;
#X connect 9 0 16 0;
#X connect 10 0 11 1;
#X connect 11 0 16 0;
#X connect 12 0 13 1;
#X connect 13 0 16 0;
#X connect 14 0 15 1;
#X connect 15 0 16 0;
#X connect 16 0 18 0;
#X connect 19 0 1 0;
#X connect 19 1 11 0;
#X connect 19 2 9 0;
#X connect 19 3 7 0;
#X connect 19 4 3 0;
#X connect 19 5 5 0;
#X connect 19 6 13 0;
#X connect 19 7 15 0;
#X connect 19 8 23 0;
#X connect 19 9 25 0;
#X connect 19 10 27 0;
#X connect 19 11 29 0;
#X connect 19 12 31 0;
#X connect 19 13 33 0;
#X connect 19 14 35 0;
#X connect 19 15 37 0;
#X connect 20 0 21 0;
#X connect 21 0 0 0;
#X connect 22 0 23 1;
#X connect 23 0 16 0;
#X connect 24 0 25 1;
#X connect 25 0 16 0;
#X connect 26 0 27 1;
#X connect 27 0 16 0;
#X connect 28 0 29 1;
#X connect 29 0 16 0;
#X connect 30 0 31 1;
#X connect 31 0 16 0;
#X connect 32 0 33 1;
#X connect 33 0 16 0;
#X connect 34 0 35 1;
#X connect 35 0 16 0;
#X connect 36 0 37 1;
#X connect 37 0 16 0;
#X connect 38 0 39 0;
#X connect 39 0 10 0;
#X connect 40 0 41 0;
#X connect 41 0 8 0;
#X connect 42 0 43 0;
#X connect 43 0 6 0;
#X connect 44 0 45 0;
#X connect 45 0 2 0;
#X connect 46 0 47 0;
#X connect 47 0 4 0;
#X connect 48 0 49 0;
#X connect 49 0 12 0;
#X connect 50 0 51 0;
#X connect 51 0 14 0;
#X connect 52 0 53 0;
#X connect 53 0 22 0;
#X connect 54 0 55 0;
#X connect 55 0 24 0;
#X connect 56 0 57 0;
#X connect 57 0 26 0;
#X connect 58 0 59 0;
#X connect 59 0 28 0;
#X connect 60 0 61 0;
#X connect 61 0 30 0;
#X connect 62 0 63 0;
#X connect 63 0 32 0;
#X connect 64 0 65 0;
#X connect 65 0 34 0;
#X connect 66 0 67 0;
#X connect 67 0 36 0;
#X connect 68 0 19 0;
#X coords 0 -1 1 1 560 250 1 150 90;
#X restore 78 330 pd freq;
#N canvas 2 137 1916 922 seq 0;
#X obj 224 46 f;
#X obj 246 46 + 1;
#X floatatom 266 63 5 0 0 0 - - -;
#X floatatom 246 119 5 0 0 0 - - -;
#X obj 224 29 receive pulse;
#X obj 314 125 nbx 5 14 1 16 0 1 empty empty length 0 -8 0 10 -262144
-1 -1 16 256;
#X obj 224 63 mod;
#X msg 309 49 0;
#X obj 224 180 send counter;
#X text 422 54 this is a counter \, it receives the pulse and outputs
numbers from 0 up to length-1 in the global variable counter;
#X connect 0 0 1 0;
#X connect 0 0 2 0;
#X connect 0 0 6 0;
#X connect 1 0 0 1;
#X connect 4 0 0 0;
#X connect 5 0 6 1;
#X connect 5 0 7 0;
#X connect 6 0 3 0;
#X connect 6 0 8 0;
#X connect 7 0 0 1;
#X coords 0 -1 1 1 85 60 1 300 100;
#X restore 707 163 pd seq;
#N canvas 2 119 1916 940 runlight 0;
#X obj 122 110 hradio 32 1 0 16 empty empty empty 0 -8 0 8 -204800
-1 -1 0;
#X obj 122 70 receive counter;
#X connect 1 0 0 0;
#X coords 0 -1 1 1 560 50 1 100 100;
#X restore 78 280 pd runlight;
#N canvas 2 119 1916 940 loudness 0;
#X obj 101 493 f;
#X obj 289 493 f;
#X obj 336 493 f;
#X obj 242 493 f;
#X obj 195 493 f;
#X obj 148 493 f;
#X obj 383 493 f;
#X obj 430 493 f;
#X floatatom 501 573 5 0 0 0 - - -;
#X obj 375 432 select 0 1 2 3 4 5 6 7 8 9 10 11 12 13 14 15;
#X obj 173 126 vsl 32 180 0 1 0 1 empty empty empty 0 -9 0 10 -260097
-1 -1 13700 1;
#X floatatom 173 370 5 0 0 0 - - -;
#X obj 480 493 f;
#X obj 530 493 f;
#X obj 580 493 f;
#X obj 630 493 f;
#X obj 680 493 f;
#X obj 730 493 f;
#X obj 780 493 f;
#X obj 830 493 f;
#X obj 205 126 vsl 32 180 0 1 0 1 empty empty empty 0 -9 0 10 -260097
-1 -1 11000 1;
#X floatatom 205 370 5 0 0 0 - - -;
#X obj 237 126 vsl 32 180 0 1 0 1 empty empty empty 0 -9 0 10 -260097
-1 -1 10300 1;
#X floatatom 237 370 5 0 0 0 - - -;
#X floatatom 269 370 5 0 0 0 - - -;
#X floatatom 301 370 5 0 0 0 - - -;
#X floatatom 333 370 5 0 0 0 - - -;
#X floatatom 365 370 5 0 0 0 - - -;
#X floatatom 397 370 5 0 0 0 - - -;
#X floatatom 429 370 5 0 0 0 - - -;
#X floatatom 461 370 5 0 0 0 - - -;
#X floatatom 493 370 5 0 0 0 - - -;
#X floatatom 525 370 5 0 0 0 - - -;
#X floatatom 557 370 5 0 0 0 - - -;
#X floatatom 589 370 5 0 0 0 - - -;
#X floatatom 621 370 5 0 0 0 - - -;
#X floatatom 653 370 5 0 0 0 - - -;
#X obj 382 407 receive counter;
#X obj 269 126 vsl 32 180 0 1 0 1 empty empty empty 0 -9 0 10 -260097
-1 -1 1900 1;
#X obj 301 126 vsl 32 180 0 1 0 1 empty empty empty 0 -9 0 10 -260097
-1 -1 5000 1;
#X obj 333 126 vsl 32 180 0 1 0 1 empty empty empty 0 -9 0 10 -260097
-1 -1 1200 1;
#X obj 365 126 vsl 32 180 0 1 0 1 empty empty empty 0 -9 0 10 -260097
-1 -1 17900 1;
#X obj 397 126 vsl 32 180 0 1 0 1 empty empty empty 0 -9 0 10 -260097
-1 -1 17900 1;
#X obj 429 126 vsl 32 180 0 1 0 1 empty empty empty 0 -9 0 10 -260097
-1 -1 12000 1;
#X obj 461 126 vsl 32 180 0 1 0 1 empty empty empty 0 -9 0 10 -260097
-1 -1 17900 1;
#X obj 493 126 vsl 32 180 0 1 0 1 empty empty empty 0 -9 0 10 -260097
-1 -1 7000 1;
#X obj 525 126 vsl 32 180 0 1 0 1 empty empty empty 0 -9 0 10 -260097
-1 -1 10400 1;
#X obj 557 126 vsl 32 180 0 1 0 1 empty empty empty 0 -9 0 10 -260097
-1 -1 12000 1;
#X obj 589 126 vsl 32 180 0 1 0 1 empty empty empty 0 -9 0 10 -260097
-1 -1 10500 1;
#X obj 621 126 vsl 32 180 0 1 0 1 empty empty empty 0 -9 0 10 -260097
-1 -1 17900 1;
#X obj 653 126 vsl 32 180 0 1 0 1 empty empty empty 0 -9 0 10 -260097
-1 -1 17900 1;
#X text 536 573 loudness;
#X obj 471 587 send loudness;
#X connect 0 0 8 0;
#X connect 1 0 8 0;
#X connect 2 0 8 0;
#X connect 3 0 8 0;
#X connect 4 0 8 0;
#X connect 5 0 8 0;
#X connect 6 0 8 0;
#X connect 7 0 8 0;
#X connect 8 0 52 0;
#X connect 9 0 0 0;
#X connect 9 1 5 0;
#X connect 9 2 4 0;
#X connect 9 3 3 0;
#X connect 9 4 1 0;
#X connect 9 5 2 0;
#X connect 9 6 6 0;
#X connect 9 7 7 0;
#X connect 9 8 12 0;
#X connect 9 9 13 0;
#X connect 9 10 14 0;
#X connect 9 11 15 0;
#X connect 9 12 16 0;
#X connect 9 13 17 0;
#X connect 9 14 18 0;
#X connect 9 15 19 0;
#X connect 10 0 11 0;
#X connect 11 0 0 1;
#X connect 12 0 8 0;
#X connect 13 0 8 0;
#X connect 14 0 8 0;
#X connect 15 0 8 0;
#X connect 16 0 8 0;
#X connect 17 0 8 0;
#X connect 18 0 8 0;
#X connect 19 0 8 0;
#X connect 20 0 21 0;
#X connect 21 0 5 1;
#X connect 22 0 23 0;
#X connect 23 0 4 1;
#X connect 24 0 3 1;
#X connect 25 0 1 1;
#X connect 26 0 2 1;
#X connect 27 0 6 1;
#X connect 28 0 7 1;
#X connect 29 0 12 1;
#X connect 30 0 13 1;
#X connect 31 0 14 1;
#X connect 32 0 15 1;
#X connect 33 0 16 1;
#X connect 34 0 17 1;
#X connect 35 0 18 1;
#X connect 36 0 19 1;
#X connect 37 0 9 0;
#X connect 38 0 24 0;
#X connect 39 0 25 0;
#X connect 40 0 26 0;
#X connect 41 0 27 0;
#X connect 42 0 28 0;
#X connect 43 0 29 0;
#X connect 44 0 30 0;
#X connect 45 0 31 0;
#X connect 46 0 32 0;
#X connect 47 0 33 0;
#X connect 48 0 34 0;
#X connect 49 0 35 0;
#X connect 50 0 36 0;
#X coords 0 -1 1 1 560 250 1 150 90;
#X restore 78 30 pd loudness;
#X obj 940 398 receive loudness;
#X obj 905 443 *~;
#N canvas 2 119 1916 940 envelope 0;
#X obj 130 124 hsl 180 30 0 1 0 1 empty empty attack/release -2 -8
0 10 -257985 -1 -1 3000 1;
#X floatatom 219 319 5 100 1000 1 tempo tempo -;
#X floatatom 304 344 5 0 0 1 decay - -;
#X floatatom 162 344 5 0 0 0 attack - -;
#X obj 304 310 * -1;
#X obj 304 327 + 1;
#X obj 212 380 *;
#X obj 254 380 *;
#X floatatom 212 397 5 0 0 0 - - -;
#X floatatom 254 397 5 0 0 0 - - -;
#X obj 189 439 ar-envelope;
#X obj 116 415 receive pulse;
#X obj 130 173 hsl 180 30 0 1 0 1 empty empty intensity -2 -8 0 10
-257985 -1 -1 17900 1;
#X obj 252 499 * -1;
#X obj 252 516 + 1;
#X obj 230 499 *~;
#X obj 236 533 +~;
#X obj 219 335 t b f;
#X floatatom 449 333 5 0 0 0 - - -;
#X obj 219 582 outlet~;
#X floatatom 62 267 5 0 0 0 - - -;
#X connect 0 0 20 0;
#X connect 1 0 17 0;
#X connect 2 0 7 0;
#X connect 3 0 6 0;
#X connect 4 0 5 0;
#X connect 5 0 2 0;
#X connect 6 0 8 0;
#X connect 7 0 9 0;
#X connect 8 0 10 1;
#X connect 9 0 10 2;
#X connect 10 0 15 0;
#X connect 11 0 10 0;
#X connect 12 0 18 0;
#X connect 13 0 14 0;
#X connect 14 0 16 1;
#X connect 15 0 16 0;
#X connect 16 0 19 0;
#X connect 17 0 7 0;
#X connect 17 0 6 0;
#X connect 17 1 7 1;
#X connect 17 1 6 1;
#X connect 18 0 13 0;
#X connect 18 0 15 1;
#X connect 20 0 3 0;
#X connect 20 0 4 0;
#X coords 0 -1 1 1 240 120 1 100 100;
#X restore 1475 361 pd envelope;
#X connect 2 0 6 0;
#X connect 2 0 7 0;
#X connect 3 0 42 0;
#X connect 4 0 42 0;
#X connect 6 0 5 0;
#X connect 6 0 3 1;
#X connect 7 0 1 0;
#X connect 7 0 4 1;
#X connect 8 0 3 0;
#X connect 9 0 4 0;
#X connect 10 0 14 0;
#X connect 11 0 12 0;
#X connect 12 0 13 0;
#X connect 13 0 0 0;
#X connect 13 0 0 1;
#X connect 14 0 11 0;
#X connect 15 0 9 0;
#X connect 15 0 8 0;
#X connect 16 0 17 0;
#X connect 20 0 33 0;
#X connect 21 0 22 0;
#X connect 22 0 20 0;
#X connect 23 0 24 0;
#X connect 24 0 20 1;
#X connect 24 0 31 0;
#X connect 25 0 26 0;
#X connect 26 0 20 2;
#X connect 26 0 31 0;
#X connect 27 0 28 0;
#X connect 28 0 20 3;
#X connect 28 0 31 0;
#X connect 29 0 30 0;
#X connect 30 0 20 4;
#X connect 30 0 31 0;
#X connect 31 0 20 0;
#X connect 33 0 36 0;
#X connect 34 0 35 0;
#X connect 35 0 10 0;
#X connect 36 0 34 0;
#X connect 41 0 42 1;
#X connect 42 0 33 0;
#X connect 43 0 10 1;
