#N canvas 2 84 1436 795 10;
#X obj 230 200 mod 8;
#X obj 484 111 tgl 15 0 empty empty on/off 17 7 0 10 -262144 -1 -1
0 1;
#X obj 230 183 f;
#X obj 527 146 metro 500;
#X obj 252 183 + 1;
#X floatatom 264 200 5 0 0 0 - - -;
#X floatatom 523 58 5 100 1000 0 tempo_click_here - tempo;
#X obj 230 217 hradio 15 1 0 8 empty empty empty 0 -8 0 8 -262144 -1
-1 2;
#X obj 242 291 select 0 1 2 3 4 5 6 7;
#X text 512 332 midi 60 = c;
#X floatatom 133 351 5 60 83 0 - - -;
#X obj 133 365 mtof;
#X obj 118 382 f;
#X floatatom 321 351 5 60 83 0 - - -;
#X obj 321 365 mtof;
#X obj 306 382 f;
#X floatatom 368 351 5 60 83 0 - - -;
#X obj 368 365 mtof;
#X obj 353 382 f;
#X floatatom 274 351 5 60 83 0 - - -;
#X obj 274 365 mtof;
#X obj 259 382 f;
#X floatatom 227 351 5 60 83 0 - - -;
#X obj 227 365 mtof;
#X obj 212 382 f;
#X floatatom 180 351 5 60 83 0 - - -;
#X obj 180 365 mtof;
#X obj 165 382 f;
#X floatatom 415 351 5 60 83 0 - - -;
#X obj 415 365 mtof;
#X obj 400 382 f;
#X floatatom 462 351 5 60 83 0 - - -;
#X obj 462 365 mtof;
#X obj 447 382 f;
#X floatatom 509 351 5 60 83 0 - - -;
#X obj 509 365 mtof;
#X obj 494 382 f;
#X obj 296 692 dac~;
#X floatatom 292 241 5 0 0 0 - - -;
#X floatatom 308 452 5 0 0 0 - - -;
#X floatatom 286 562 5 0 0 0 - - -;
#X obj 419 498 vradio 15 1 0 2 empty empty empty 0 -8 0 10 -262144
-1 -1 0;
#X obj 340 562 *~;
#X obj 264 562 *~;
#X floatatom 362 562 5 0 0 0 - - -;
#X obj 355 545 == 1;
#X obj 279 545 == 0;
#X text 343 452 frequency;
#X obj 341 518 square;
#X obj 265 518 saw;
#X obj 738 266 hsl 128 15 0 1 0 0 empty empty empty -2 -8 0 10 -262144
-1 -1 5700 1;
#X obj 304 621 *~;
#X floatatom 847 358 5 100 1000 1 tempo tempo -;
#X floatatom 773 343 5 0 0 1 decay - -;
#X floatatom 731 343 5 0 0 0 attack - -;
#X obj 773 309 * -1;
#X obj 773 326 + 1;
#X floatatom 615 108 5 100 1000 0 tempo tempo -;
#X obj 731 379 *;
#X obj 773 379 *;
#X text 659 383;
#X text 814 344;
#X text 492 73;
#X obj 863 666 snapshot~;
#X obj 880 593 tgl 15 0 empty empty empty 17 7 0 10 -262144 -1 -1 1
1;
#X floatatom 861 704 5 0 0 0 - - -;
#X obj 874 629 metro 10;
#X floatatom 731 396 5 0 0 0 - - -;
#X floatatom 773 396 5 0 0 0 - - -;
#X text 865 538 this is for debugging best ignore it;
#X text 734 470;
#X obj 718 498 ar-envelope;
#X connect 0 0 7 0;
#X connect 0 0 38 0;
#X connect 1 0 3 0;
#X connect 2 0 0 0;
#X connect 2 0 4 0;
#X connect 2 0 5 0;
#X connect 3 0 2 0;
#X connect 3 0 71 0;
#X connect 4 0 2 1;
#X connect 7 0 8 0;
#X connect 8 0 12 0;
#X connect 8 1 27 0;
#X connect 8 2 24 0;
#X connect 8 3 21 0;
#X connect 8 4 15 0;
#X connect 8 5 18 0;
#X connect 8 6 30 0;
#X connect 8 7 33 0;
#X connect 8 8 36 0;
#X connect 10 0 11 0;
#X connect 11 0 12 1;
#X connect 12 0 39 0;
#X connect 13 0 14 0;
#X connect 14 0 15 1;
#X connect 15 0 39 0;
#X connect 16 0 17 0;
#X connect 17 0 18 1;
#X connect 18 0 39 0;
#X connect 19 0 20 0;
#X connect 20 0 21 1;
#X connect 21 0 39 0;
#X connect 22 0 23 0;
#X connect 23 0 24 1;
#X connect 24 0 39 0;
#X connect 25 0 26 0;
#X connect 26 0 27 1;
#X connect 27 0 39 0;
#X connect 28 0 29 0;
#X connect 29 0 30 1;
#X connect 30 0 39 0;
#X connect 31 0 32 0;
#X connect 32 0 33 1;
#X connect 33 0 39 0;
#X connect 34 0 35 0;
#X connect 35 0 36 1;
#X connect 36 0 39 0;
#X connect 39 0 48 0;
#X connect 39 0 49 0;
#X connect 41 0 45 0;
#X connect 41 0 46 0;
#X connect 42 0 51 0;
#X connect 43 0 51 0;
#X connect 45 0 44 0;
#X connect 45 0 42 1;
#X connect 46 0 40 0;
#X connect 46 0 43 1;
#X connect 48 0 42 0;
#X connect 49 0 43 0;
#X connect 50 0 54 0;
#X connect 50 0 55 0;
#X connect 51 0 37 0;
#X connect 51 0 37 1;
#X connect 52 0 59 1;
#X connect 52 0 58 1;
#X connect 53 0 59 0;
#X connect 54 0 58 0;
#X connect 55 0 56 0;
#X connect 56 0 53 0;
#X connect 57 0 3 1;
#X connect 58 0 67 0;
#X connect 59 0 68 0;
#X connect 63 0 65 0;
#X connect 64 0 66 0;
#X connect 66 0 63 0;
#X connect 67 0 71 1;
#X connect 68 0 71 2;
#X connect 71 0 63 0;
#X connect 71 0 51 1;
