#N canvas 1922 83 1916 1096 10;
#X obj 230 200 mod 8;
#X obj 154 91 tgl 15 0 empty empty on/off 17 7 0 10 -262144 -1 -1 0
1;
#X obj 230 183 f;
#X obj 197 126 metro 500;
#X obj 252 183 + 1;
#X floatatom 264 200 5 0 0 0 - - -;
#X floatatom 285 88 5 100 1000 0 tempo - -;
#X msg 297 43 loadbang;
#X obj 230 217 hradio 15 1 0 8 empty empty empty 0 -8 0 8 -262144 -1
-1 3;
#X obj 242 291 select 0 1 2 3 4 5 6 7;
#X text 512 332 midi 60 = c;
#X floatatom 133 351 5 60 83 0 - - -;
#X obj 133 365 mtof;
#X obj 118 382 f;
#X floatatom 321 351 5 60 83 0 - - -;
#X obj 321 365 mtof;
#X obj 306 382 f;
#X floatatom 368 351 5 60 83 0 - - -;
#X obj 368 365 mtof;
#X obj 353 382 f;
#X floatatom 274 351 5 60 83 0 - - -;
#X obj 274 365 mtof;
#X obj 259 382 f;
#X floatatom 227 351 5 60 83 0 - - -;
#X obj 227 365 mtof;
#X obj 212 382 f;
#X floatatom 180 351 5 60 83 0 - - -;
#X obj 180 365 mtof;
#X obj 165 382 f;
#X floatatom 415 351 5 60 83 0 - - -;
#X obj 415 365 mtof;
#X obj 400 382 f;
#X floatatom 462 351 5 60 83 0 - - -;
#X obj 462 365 mtof;
#X obj 447 382 f;
#X floatatom 509 351 5 60 83 0 - - -;
#X obj 509 365 mtof;
#X obj 494 382 f;
#X obj 296 692 dac~;
#X floatatom 292 241 5 0 0 0 - - -;
#N canvas 1922 83 1916 1096 square 0;
#X obj 289 174 phasor~;
#X obj 225 174 phasor~;
#X obj 282 191 *~ -1;
#X obj 258 88 inlet;
#X obj 266 207 +~;
#X msg 325 157 0.5;
#X msg 258 157 0;
#X msg 325 102 loadbang;
#X obj 266 224 *~ 2;
#X floatatom 258 105 5 0 0 0 - - -;
#X obj 266 241 outlet~;
#X connect 0 0 2 0;
#X connect 1 0 4 0;
#X connect 2 0 4 1;
#X connect 3 0 9 0;
#X connect 4 0 8 0;
#X connect 5 0 0 1;
#X connect 6 0 1 1;
#X connect 7 0 5 0;
#X connect 7 0 6 0;
#X connect 8 0 10 0;
#X connect 9 0 1 0;
#X connect 9 0 0 0;
#X restore 341 518 pd square;
#N canvas 1922 83 1916 1096 saw 0;
#X obj 209 127 inlet;
#X obj 209 144 phasor~;
#X obj 209 178 wrap~;
#X obj 209 212 -~ 1;
#X obj 209 195 *~ 2;
#X obj 209 161 *~ -1;
#X obj 209 229 outlet~;
#X connect 0 0 1 0;
#X connect 1 0 5 0;
#X connect 2 0 4 0;
#X connect 3 0 6 0;
#X connect 4 0 3 0;
#X connect 5 0 2 0;
#X restore 265 518 pd saw;
#X floatatom 308 452 5 0 0 0 - - -;
#X floatatom 287 563 5 0 0 0 - - -;
#X obj 419 498 vradio 15 1 0 2 empty empty empty 0 -8 0 10 -262144
-1 -1 1;
#X obj 340 562 *~;
#X obj 264 562 *~;
#X floatatom 363 563 5 0 0 0 - - -;
#X obj 355 545 == 1;
#X obj 279 545 == 0;
#X text 343 452 frequency;
#X connect 0 0 8 0;
#X connect 0 0 39 0;
#X connect 1 0 3 0;
#X connect 2 0 0 0;
#X connect 2 0 4 0;
#X connect 2 0 5 0;
#X connect 3 0 2 0;
#X connect 4 0 2 1;
#X connect 6 0 3 1;
#X connect 7 0 6 0;
#X connect 8 0 9 0;
#X connect 9 0 13 0;
#X connect 9 1 28 0;
#X connect 9 2 25 0;
#X connect 9 3 22 0;
#X connect 9 4 16 0;
#X connect 9 5 19 0;
#X connect 9 6 31 0;
#X connect 9 7 34 0;
#X connect 9 8 37 0;
#X connect 11 0 12 0;
#X connect 12 0 13 1;
#X connect 13 0 42 0;
#X connect 14 0 15 0;
#X connect 15 0 16 1;
#X connect 16 0 42 0;
#X connect 17 0 18 0;
#X connect 18 0 19 1;
#X connect 19 0 42 0;
#X connect 20 0 21 0;
#X connect 21 0 22 1;
#X connect 22 0 42 0;
#X connect 23 0 24 0;
#X connect 24 0 25 1;
#X connect 25 0 42 0;
#X connect 26 0 27 0;
#X connect 27 0 28 1;
#X connect 28 0 42 0;
#X connect 29 0 30 0;
#X connect 30 0 31 1;
#X connect 31 0 42 0;
#X connect 32 0 33 0;
#X connect 33 0 34 1;
#X connect 34 0 42 0;
#X connect 35 0 36 0;
#X connect 36 0 37 1;
#X connect 37 0 42 0;
#X connect 40 0 45 0;
#X connect 41 0 46 0;
#X connect 42 0 40 0;
#X connect 42 0 41 0;
#X connect 44 0 48 0;
#X connect 44 0 49 0;
#X connect 45 0 38 0;
#X connect 45 0 38 1;
#X connect 46 0 38 0;
#X connect 46 0 38 1;
#X connect 48 0 47 0;
#X connect 48 0 45 1;
#X connect 49 0 43 0;
#X connect 49 0 46 1;
