#N canvas 414 208 1070 710 10;
#X floatatom 508 192 10 0 0 0 - delay0 -;
#X floatatom 628 192 10 0 0 0 - delay1 -;
#X floatatom 747 192 10 0 0 0 - delay2 -;
#X obj 115 114 vsl 30 120 1 1000 1 1 delay0 empty empty 0 -9 0 10 -4032
-1 -1 800 1;
#X obj 145 114 vsl 40 120 0 1 0 1 delayint0 empty empty 0 -9 0 10 -204800
-1 -1 2800 1;
#X obj 185 114 vsl 30 120 1 1000 1 1 delay1 empty empty 0 -9 0 10 -4032
-1 -1 0 1;
#X obj 215 114 vsl 40 120 0 1 0 1 delayint1 empty empty 0 -9 0 10 -204800
-1 -1 0 1;
#X obj 255 114 vsl 30 120 1 1000 1 1 delay2 empty empty 0 -9 0 10 -4032
-1 -1 0 1;
#X obj 285 114 vsl 40 120 0 1 0 1 delayint2 empty empty 0 -9 0 10 -204800
-1 -1 0 1;
#X floatatom 522 241 5 0 0 0 - delayint0 -;
#X floatatom 644 239 5 0 0 0 - delayint1 -;
#X floatatom 763 242 5 0 0 0 - delayint2 -;
#X obj 507 258 *~;
#X obj 629 256 *~;
#X obj 748 259 *~;
#X obj 443 428 outlet~;
#X obj 443 67 inlet~;
#X obj 508 208 delread~ delay0 0;
#X obj 628 208 delread~ delay1 0;
#X obj 747 208 delread~ delay2 0;
#X obj 508 158 delwrite~ delay0;
#X obj 628 158 delwrite~ delay1;
#X obj 748 158 delwrite~ delay2;
#X obj 443 387 /~ 4;
#X connect 0 0 17 0;
#X connect 1 0 18 0;
#X connect 2 0 19 0;
#X connect 9 0 12 1;
#X connect 10 0 13 1;
#X connect 11 0 14 1;
#X connect 12 0 23 0;
#X connect 13 0 23 0;
#X connect 14 0 23 0;
#X connect 16 0 20 0;
#X connect 16 0 21 0;
#X connect 16 0 22 0;
#X connect 16 0 23 0;
#X connect 17 0 12 0;
#X connect 18 0 13 0;
#X connect 19 0 14 0;
#X connect 23 0 15 0;
#X coords 0 -1 1 1 240 150 1 100 100;
