#N canvas 962 342 476 244 10;
#X obj 49 47 inlet;
#X obj 49 64 phasor~;
#X obj 49 98 wrap~;
#X obj 49 132 -~ 1;
#X obj 49 115 *~ 2;
#X obj 49 81 *~ -1;
#X obj 49 149 outlet~;
#X text 137 55 this is a descending saw \, not like a phasor which
is ascending;
#X connect 0 0 1 0;
#X connect 1 0 5 0;
#X connect 2 0 4 0;
#X connect 3 0 6 0;
#X connect 4 0 3 0;
#X connect 5 0 2 0;
