#N canvas 1082 76 356 803 10;
#X obj 175 169 phasor~;
#X obj 111 169 phasor~;
#X obj 168 186 *~ -1;
#X obj 144 83 inlet;
#X obj 152 202 +~;
#X msg 211 152 0.5;
#X msg 144 152 0;
#X msg 211 97 loadbang;
#X obj 152 219 *~ 2;
#X floatatom 144 100 5 0 0 0 - - -;
#X obj 152 236 outlet~;
#X connect 0 0 2 0;
#X connect 1 0 4 0;
#X connect 2 0 4 1;
#X connect 3 0 9 0;
#X connect 4 0 8 0;
#X connect 5 0 0 1;
#X connect 6 0 1 1;
#X connect 7 0 5 0;
#X connect 7 0 6 0;
#X connect 8 0 10 0;
#X connect 9 0 1 0;
#X connect 9 0 0 0;
